<?xml version="1.0" standalone="no"?>
<!DOCTYPE svg PUBLIC "-//W3C//DTD SVG 20010904//EN"
 "http://www.w3.org/TR/2001/REC-SVG-20010904/DTD/svg10.dtd">
<svg version="1.0" xmlns="http://www.w3.org/2000/svg"
 width="243.000000pt" height="304.000000pt" viewBox="0 0 243.000000 304.000000"
 preserveAspectRatio="xMidYMid meet">
<metadata>
Created by potrace 1.16, written by Peter Selinger 2001-2019
</metadata>
<g transform="translate(0.000000,304.000000) scale(0.100000,-0.100000)"
fill="#000000" stroke="none">
<path d="M0 2458 l0 -583 21 25 c54 67 144 242 171 331 8 28 20 44 37 51 55
22 159 46 221 53 36 3 79 13 96 21 72 32 158 47 244 41 132 -9 153 -19 180
-86 29 -71 52 -111 108 -184 44 -58 166 -167 186 -167 6 0 22 20 35 45 28 53
46 59 37 13 -4 -18 -9 -59 -13 -90 l-5 -58 -139 0 -139 0 -6 39 c-7 43 -6 42
-114 78 -43 14 -86 18 -200 18 -170 -1 -247 -18 -394 -91 l-89 -44 -118 0
-119 0 0 -935 0 -935 1215 0 1215 0 0 572 0 573 -37 -55 c-43 -64 -128 -241
-138 -288 -4 -21 -16 -37 -34 -47 -44 -22 -181 -55 -232 -55 -28 0 -69 -10
-103 -25 -77 -34 -178 -47 -265 -35 -109 15 -112 18 -164 122 -55 111 -132
208 -217 273 -34 26 -62 46 -64 44 -2 -2 -13 -23 -26 -46 -13 -24 -30 -43 -37
-43 -16 0 -16 -5 2 54 8 27 15 66 15 88 l0 38 140 0 140 0 0 -32 c0 -45 7 -52
70 -75 196 -73 490 -39 681 79 43 26 53 28 158 28 l111 0 0 935 0 935 -1215 0
-1215 0 0 -582z m1737 458 c112 -24 193 -56 274 -109 46 -30 46 -30 53 -100
20 -215 124 -453 281 -642 45 -54 43 -43 19 -162 l-6 -33 -189 0 c-104 0 -189
3 -189 8 0 4 8 36 17 72 23 91 22 312 -1 400 -46 176 -106 281 -218 386 -98
92 -218 144 -330 144 -42 0 -58 4 -58 14 0 33 225 47 347 22z m-1141 -70 c62
-30 156 -59 264 -81 108 -23 345 -24 442 -2 l67 14 60 -54 c33 -29 83 -85 111
-123 27 -39 54 -70 58 -70 16 0 114 -102 146 -153 42 -65 83 -184 70 -202 -87
-119 -153 -242 -154 -287 0 -16 -11 -18 -97 -18 -88 0 -96 1 -82 16 31 30 -9
185 -79 309 -111 198 -311 349 -549 417 -103 30 -297 31 -388 4 -136 -42 -256
-127 -312 -223 -53 -91 -59 -31 -7 77 73 153 182 272 324 356 41 24 75 44 75
44 1 0 23 -11 51 -24z m313 -1027 c61 -21 63 -47 19 -223 -33 -131 -48 -159
-107 -197 l-24 -15 17 -80 c9 -45 16 -84 16 -87 0 -4 -47 -7 -105 -7 l-104 0
-10 38 c-6 20 -13 61 -17 90 l-7 52 -58 0 -58 0 -10 -37 c-5 -21 -15 -62 -22
-90 l-13 -53 -109 0 c-99 0 -108 2 -103 18 3 9 15 53 27 97 11 44 27 104 35
133 7 28 20 76 27 105 7 29 17 59 21 65 5 8 41 12 108 12 l100 0 -6 -32 -6
-33 95 3 c83 3 95 6 100 23 3 10 8 28 11 39 5 20 1 20 -196 20 -158 0 -201 3
-198 13 3 6 13 45 23 85 l19 72 251 0 c158 0 264 -4 284 -11z m681 4 c0 -5
-12 -54 -27 -110 l-27 -103 -92 0 -92 0 -6 -27 c-9 -40 -65 -259 -82 -320
l-15 -53 -104 0 c-58 0 -105 2 -105 4 0 5 57 226 81 311 10 38 19 73 19 77 0
5 -38 8 -85 8 -72 0 -85 3 -85 16 0 13 27 125 46 192 3 9 69 12 289 12 157 0
285 -3 285 -7z m608 -13 c28 -17 32 -25 32 -64 0 -96 -44 -191 -105 -224 -11
-6 -14 -12 -8 -12 7 0 19 -13 28 -29 13 -27 13 -36 -5 -108 -40 -158 -52 -163
-363 -163 l-238 0 -24 25 c-30 29 -31 58 -6 148 19 69 60 127 90 127 11 0 9 6
-7 23 -28 29 -28 74 -2 159 20 66 54 108 100 127 14 5 126 10 250 10 207 1
228 -1 258 -19z m-1732 -657 c-20 -68 -36 -183 -36 -264 0 -220 71 -413 203
-555 104 -112 207 -165 350 -181 37 -5 67 -12 67 -18 -1 -19 -55 -27 -180 -28
-167 -1 -263 24 -406 104 l-70 41 -17 106 c-33 222 -120 417 -265 595 l-55 68
18 74 17 75 190 0 c176 0 189 -1 184 -17z m499 -3 c-15 -17 -16 -26 -6 -84 32
-183 162 -378 331 -498 92 -65 144 -92 246 -128 78 -28 106 -33 224 -37 152
-6 217 5 328 57 70 32 177 128 208 185 18 34 44 47 44 23 -1 -24 -46 -124 -85
-188 -21 -35 -68 -94 -103 -132 -64 -68 -193 -163 -236 -174 -12 -3 -45 6 -76
19 -195 86 -470 120 -667 82 -43 -8 -83 -15 -89 -15 -21 0 -114 92 -175 172
-33 43 -63 78 -67 78 -13 0 -79 64 -115 113 -39 51 -58 87 -82 156 -20 58 -19
84 4 106 40 35 121 189 136 254 l7 31 95 0 c95 0 96 0 78 -20z"/>
<path d="M1564 2413 c-24 -49 -28 -71 -29 -143 0 -75 3 -92 30 -144 17 -33 35
-61 42 -63 20 -7 57 125 56 207 0 77 -34 189 -60 197 -6 2 -24 -22 -39 -54z"/>
<path d="M821 950 c-23 -53 -41 -133 -41 -184 0 -61 25 -152 50 -186 l19 -25
30 65 c52 110 40 251 -30 343 -13 16 -15 15 -28 -13z"/>
<path d="M595 2319 c-9 -14 23 -67 66 -109 61 -59 121 -84 212 -88 76 -4 78
-3 68 15 -5 11 -39 47 -74 80 -45 42 -81 65 -123 80 -67 24 -141 35 -149 22z"/>
<path d="M1500 909 c0 -25 116 -131 176 -160 63 -31 184 -52 184 -32 0 22 -71
107 -115 139 -26 18 -71 40 -100 49 -61 17 -145 20 -145 4z"/>
</g>
</svg>
