<?xml version="1.0" standalone="no"?>
<!DOCTYPE svg PUBLIC "-//W3C//DTD SVG 20010904//EN"
 "http://www.w3.org/TR/2001/REC-SVG-20010904/DTD/svg10.dtd">
<svg version="1.0" xmlns="http://www.w3.org/2000/svg"
 width="243.000000pt" height="244.000000pt" viewBox="0 0 243.000000 244.000000"
 preserveAspectRatio="xMidYMid meet">
<metadata>
Created by potrace 1.16, written by Peter Selinger 2001-2019
</metadata>
<g transform="translate(0.000000,244.000000) scale(0.100000,-0.100000)"
fill="#000000" stroke="none">
<path d="M1388 2343 c-16 -2 -28 -10 -28 -17 0 -10 20 -15 64 -18 92 -6 196
-59 270 -138 136 -147 191 -362 151 -585 -8 -44 -15 -81 -15 -82 0 -2 67 -3
150 -3 l149 0 10 38 c5 20 11 46 13 57 2 13 -19 50 -59 102 -101 133 -161 273
-189 436 -17 102 -23 111 -107 154 -104 52 -277 76 -409 56z"/>
<path d="M595 2254 c-88 -57 -116 -83 -171 -161 -37 -51 -104 -179 -104 -198
0 -17 29 0 44 26 53 90 180 168 309 189 215 37 479 -70 628 -254 89 -110 159
-291 131 -337 -12 -18 -8 -19 62 -19 l73 0 22 60 c12 33 43 90 68 128 45 66
45 67 34 112 -21 81 -102 192 -172 236 -8 5 -27 28 -43 51 -39 58 -134 146
-150 140 -8 -3 -60 -11 -115 -17 -154 -18 -337 7 -468 65 -31 14 -61 25 -67
25 -7 0 -43 -21 -81 -46z m970 -361 c17 -66 10 -145 -19 -214 l-13 -31 -16 23
c-52 73 -59 187 -17 269 18 36 24 40 35 29 8 -8 21 -42 30 -76z"/>
<path d="M778 1920 c-27 -5 -67 -15 -90 -24 -24 -9 -74 -20 -111 -26 -38 -6
-91 -18 -119 -28 -48 -16 -52 -20 -73 -78 -30 -80 -59 -137 -106 -206 l-39
-58 96 0 c91 0 99 2 177 40 168 81 361 95 512 38 36 -14 45 -25 45 -55 0 -23
3 -23 114 -23 l113 0 6 53 c3 28 8 60 12 70 13 31 -15 18 -36 -18 l-21 -35
-47 34 c-62 46 -134 135 -179 225 -29 57 -44 77 -64 82 -49 13 -143 17 -190 9z
m72 -82 c41 -17 150 -112 150 -130 0 -11 -78 -10 -121 2 -20 6 -51 20 -70 33
-34 23 -99 101 -99 118 0 15 86 1 140 -23z"/>
<path d="M2248 1655 c-3 -4 5 -31 19 -61 47 -104 48 -227 3 -347 -15 -39 -20
-77 -20 -149 0 -54 4 -98 8 -98 4 0 28 20 52 45 25 25 62 57 82 72 l38 26 0
92 c0 107 -23 196 -75 290 -38 68 -97 140 -107 130z"/>
<path d="M531 1432 c-6 -21 -14 -53 -17 -70 l-7 -33 159 1 159 2 -3 -24 c-7
-41 -21 -48 -94 -48 -70 0 -70 0 -64 25 l6 25 -85 0 -84 0 -15 -52 c-23 -82
-63 -230 -70 -261 l-7 -28 88 3 87 3 16 65 16 65 43 3 c52 4 57 -2 66 -80 l7
-58 84 0 84 0 0 33 c-1 17 -5 51 -9 74 -7 36 -6 43 9 48 36 11 60 53 85 145
28 108 31 148 11 176 -13 18 -30 19 -235 22 l-220 3 -10 -39z"/>
<path d="M1055 1458 c-10 -31 -35 -137 -35 -152 0 -13 12 -16 68 -16 l68 0
-38 -147 c-21 -82 -38 -154 -38 -160 0 -10 23 -13 83 -13 l83 0 40 158 41 157
74 5 74 5 16 60 c9 33 19 72 23 88 l6 27 -230 0 c-176 0 -232 -3 -235 -12z"/>
<path d="M1604 1463 c-35 -7 -74 -57 -89 -114 -19 -71 -19 -94 2 -115 15 -14
15 -18 4 -22 -47 -16 -100 -147 -81 -198 15 -39 40 -44 236 -44 244 0 256 6
285 149 12 54 11 63 -3 78 -15 15 -14 18 17 47 24 23 36 45 44 88 7 32 11 70
9 85 -5 46 -34 53 -228 51 -96 0 -185 -3 -196 -5z"/>
<path d="M145 1400 c-22 -23 -61 -57 -88 -77 l-47 -35 0 -77 c0 -97 19 -174
69 -276 39 -78 103 -166 115 -155 3 4 -7 35 -21 70 -37 89 -39 223 -5 321 19
55 22 83 20 168 l-3 102 -40 -41z"/>
<path d="M311 918 c-4 -13 -11 -40 -15 -61 -7 -35 -3 -43 55 -120 105 -139
179 -318 195 -476 l7 -58 61 -36 c115 -67 313 -101 439 -74 46 10 49 27 4 27
-49 0 -144 27 -199 57 -109 59 -218 217 -252 363 -24 102 -19 308 9 383 7 16
-4 17 -144 17 -148 0 -152 -1 -160 -22z"/>
<path d="M873 923 c-38 -107 -54 -138 -105 -204 -27 -36 -27 -37 -13 -85 20
-70 66 -138 146 -219 38 -38 98 -101 133 -139 l63 -69 77 12 c175 26 367 6
514 -53 l82 -33 62 36 c117 69 241 218 278 334 14 44 5 62 -15 32 -50 -72 -65
-89 -107 -121 -26 -19 -75 -47 -110 -62 -58 -24 -74 -27 -198 -27 -131 0 -138
1 -225 35 -172 67 -304 181 -383 328 -45 85 -79 209 -62 226 21 21 8 26 -60
26 -58 0 -72 -3 -77 -17z m72 -195 c29 -63 33 -142 9 -211 -23 -69 -37 -75
-60 -25 -25 56 -26 196 -2 251 10 20 20 37 23 37 3 0 17 -24 30 -52z"/>
<path d="M1138 883 c-2 -32 -6 -64 -9 -72 -2 -7 1 -15 6 -17 6 -3 20 14 30 36
l20 40 58 -45 c67 -53 133 -139 176 -229 28 -59 33 -64 75 -75 85 -21 171 -13
291 27 17 6 62 15 102 21 116 17 148 34 168 89 25 67 83 180 116 229 16 23 29
44 29 47 0 3 -42 6 -93 6 -68 0 -99 -4 -115 -16 -37 -25 -155 -71 -230 -88
-87 -20 -188 -20 -268 -1 -93 22 -111 33 -119 71 l-6 34 -114 0 -113 0 -4 -57z
m458 -168 c54 -22 134 -105 134 -140 0 -10 -57 -5 -108 10 -37 11 -69 32 -112
71 -33 31 -60 60 -60 64 0 21 91 17 146 -5z"/>
</g>
</svg>
