<svg width="4106" height="614" viewBox="0 0 4106 614" fill="none" xmlns="http://www.w3.org/2000/svg">
<path d="M2138.98 198.427H2205.94L2222.8 280H2330.58L2313.96 196.855C2327.12 194.6 2338.89 189.253 2349.26 180.813C2359.63 172.372 2366.54 162.359 2370.06 150.826L2400.87 47.6016C2404.94 33.7615 2403.18 22.3853 2395.6 13.4207C2388.01 4.45609 2376.25 0 2360.3 0H2090.88L2069.29 69.9345H2272.23C2276.11 69.9345 2279.02 71.0878 2280.9 73.3421C2282.84 75.5963 2283.39 78.4273 2282.48 81.7824L2275.38 105.007C2274.35 108.362 2272.29 111.14 2269.2 113.342C2266.11 115.544 2262.65 116.592 2258.77 116.592H2163.6L2171.79 88.5452H2064.01L2005 279.948H2114.11L2138.92 198.375L2138.98 198.427Z" fill="white"/>
<path d="M2378.47 266.579C2386.07 275.544 2397.85 280 2413.82 280H2628.96C2644.99 280 2659.57 275.544 2672.75 266.579C2685.93 257.615 2694.56 246.239 2698.63 232.398L2754.87 47.6016C2758.94 33.7615 2757.18 22.3853 2749.59 13.4207C2741.99 4.45609 2730.33 0 2714.48 0H2499.34C2483.31 0 2468.67 4.45609 2455.37 13.4207C2442.07 22.3853 2433.44 33.7615 2429.37 47.6016L2373.13 232.398C2369.06 246.239 2370.82 257.615 2378.41 266.579H2378.47ZM2498.86 174.993L2520.24 105.059C2520.97 101.704 2522.97 98.9777 2526.31 96.7759C2529.65 94.574 2533.24 93.4207 2537.12 93.4207H2619.24C2623.13 93.4207 2626.04 94.574 2627.93 96.7759C2629.81 98.9777 2630.42 101.704 2629.51 105.059L2607.88 174.993C2607.15 178.349 2605.21 181.127 2601.93 183.329C2598.65 185.531 2595.13 186.579 2591.24 186.579H2508.88C2504.99 186.579 2502.14 185.531 2500.32 183.329C2498.49 181.127 2498.01 178.296 2498.86 174.993Z" fill="white"/>
<path d="M3095 0H2792.46L2764 93.4207H2861.35L2804.6 280H2912.51L2968.71 93.4207H3065.99L3095 0Z" fill="white"/>
<path d="M3297.38 81.7824C3301.26 81.7824 3304.16 82.9358 3306.04 85.1376C3307.97 87.3394 3308.4 90.0655 3307.37 93.4207L3303.68 105.059H3142.73C3126.94 105.059 3112.6 109.515 3099.71 118.48C3086.82 127.444 3078.17 138.82 3073.81 152.661L3049.37 232.398C3045.01 246.239 3046.65 257.615 3054.39 266.579C3062.14 275.544 3073.94 280 3089.91 280H3359.16L3373.62 232.398L3429.65 47.6016C3434.01 33.9187 3432.31 22.595 3424.51 13.578C3416.7 4.56094 3404.84 0 3388.87 0H3119.62L3094.87 81.7824H3297.32H3297.38ZM3279.47 186.579L3275.78 198.427H3181.39C3177.52 198.427 3174.62 197.274 3172.74 195.02C3170.81 192.765 3170.26 189.934 3171.17 186.579C3172.56 183.224 3174.92 180.498 3178.13 178.296C3181.39 176.094 3184.84 174.941 3188.53 174.941H3282.68L3279.54 186.579H3279.47Z" fill="white"/>
<path d="M3479.48 280H3587.06L3643.03 93.4207H3740.08L3769 0H3467.38L3439 93.4207H3536.05L3479.48 280Z" fill="white"/>
<path d="M4098.64 13.4207C4091 4.45609 4079.19 0 4063.2 0H3848.64C3832.65 0 3818.17 4.45609 3805.09 13.4207C3792 22.3853 3783.28 33.7615 3778.92 47.6016L3723.37 232.398C3719.01 246.239 3720.65 257.615 3728.4 266.579C3736.09 275.544 3747.97 280 3763.96 280H4033.52L4058.29 198.427H3855.61C3851.73 198.427 3848.82 197.274 3846.95 195.02C3845.01 192.765 3844.46 189.934 3845.37 186.579L3849.31 174.941H4010.44C4026.43 174.941 4040.91 170.485 4053.87 161.52C4066.83 152.556 4075.56 141.18 4079.92 127.339L4103.6 47.6016C4107.96 33.7615 4106.39 22.3853 4098.76 13.4207H4098.64ZM3981.6 93.3683C3980.57 96.7235 3978.39 99.502 3975.18 101.704C3971.91 103.906 3968.4 104.954 3964.52 104.954H3870.03L3873.96 93.3159C3874.69 89.9607 3876.63 87.2346 3879.9 85.0328C3883.17 82.8309 3886.68 81.6776 3890.56 81.6776H3971.67C3975.55 81.6776 3978.39 82.8309 3980.21 85.0328C3982.03 87.2346 3982.51 89.9607 3981.67 93.3159L3981.6 93.3683Z" fill="white"/>
<path d="M2226.12 466.031L2207.14 519.697H2094.61C2090.05 519.697 2086.73 518.604 2084.51 516.417C2082.29 514.23 2081.8 511.315 2082.78 507.943L2108.05 437.239C2108.91 433.868 2111.25 431.134 2115.2 428.856C2119.14 426.579 2123.45 425.485 2128.01 425.485H2367.98L2402 331H2083.52C2064.66 331 2047.28 335.556 2031.63 344.576C2015.98 353.596 2005.75 365.168 2000.94 379.108L1934.51 565.892C1929.7 579.832 1931.8 591.404 1940.8 600.424C1949.67 609.444 1963.6 614 1982.58 614H2301.06L2334.71 519.515L2354.06 465.849H2226.24L2226.12 466.031Z" fill="white"/>
<path d="M2802.08 344.572C2793.2 335.554 2779.26 331 2760.27 331H2441.61L2424.47 378.182L2340 614H2469.11L2498.46 531.568H2577.64L2597.61 614H2725.12L2705.52 529.929C2721.06 527.652 2734.99 522.278 2747.32 513.716C2759.53 505.154 2767.79 495.043 2771.99 483.385L2808.49 379.093C2813.3 365.157 2811.2 353.589 2802.2 344.572H2802.08ZM2668.27 413.614L2659.89 437.114C2658.66 440.484 2656.19 443.307 2652.61 445.585C2649.04 447.862 2644.84 448.864 2640.28 448.864H2527.69L2543.85 401.682H2656.07C2660.63 401.682 2664.08 402.866 2666.3 405.143C2668.64 407.42 2669.26 410.244 2668.15 413.705L2668.27 413.614Z" fill="white"/>
<path d="M3220.18 344.576C3211.28 335.556 3197.31 331 3178.64 331H2923.98C2905.06 331 2887.63 335.556 2871.93 344.576C2856.23 353.596 2845.97 365.168 2841.15 379.108L2774.52 565.892C2769.7 579.832 2771.8 591.404 2780.82 600.424C2789.72 609.444 2803.69 614 2822.73 614H3077.39C3096.31 614 3113.61 609.444 3129.31 600.424C3145.01 591.404 3155.15 579.832 3159.97 565.892L3226.48 379.108C3231.3 365.168 3229.2 353.596 3220.18 344.576ZM3078.01 437.148L3052.42 507.852C3051.56 511.223 3049.21 514.048 3045.38 516.326C3041.54 518.513 3037.34 519.606 3032.77 519.606H2935.23C2930.65 519.606 2927.32 518.513 2925.09 516.326C2922.87 514.139 2922.37 511.223 2923.36 507.852L2948.7 437.148C2949.57 433.777 2951.92 431.043 2955.87 428.765C2959.83 426.487 2964.16 425.394 2968.73 425.394H3065.9C3070.47 425.394 3073.93 426.579 3076.16 428.765C3078.51 430.952 3079.12 433.777 3078.01 437.148Z" fill="white"/>
<path d="M3661.88 331H3534L3461.98 531.568H3350.62C3346.06 531.568 3342.6 530.384 3340.14 527.925C3337.67 525.466 3337.18 522.551 3338.41 519.181L3405.5 331H3276.75L3193.51 565.907C3188.7 579.843 3190.8 591.411 3199.8 600.428C3208.68 609.446 3222.62 614 3241.61 614H3560.26L3590.23 531.568H3589.61L3662 331H3661.88Z" fill="white"/>
<path d="M4019.33 331H3701.39L3678.38 394.759L3600 614H3728.83L3745.93 566.818H3936.03C3954.86 566.818 3971.96 562.264 3987.34 553.247C4002.72 544.229 4012.93 532.661 4018.1 518.725L4067.19 379.184C4072.36 365.248 4070.39 353.68 4061.29 344.663C4052.18 335.645 4038.16 331.091 4019.33 331.091V331ZM3919.17 437.114L3911.05 460.613C3909.82 463.984 3907.36 466.807 3903.55 469.175C3899.73 471.544 3895.67 472.637 3891.12 472.637H3779.15L3795.02 425.455H3906.99C3911.54 425.455 3914.99 426.639 3917.45 428.825C3919.91 431.011 3920.4 433.835 3919.17 437.205V437.114Z" fill="white"/>
<path d="M658.065 0H159.124L119.074 153.328H494.976C502.167 153.328 507.475 155.803 511.104 160.822C514.665 165.842 515.673 171.961 514.06 179.318L500.89 230.267C498.941 237.624 495.111 243.674 489.399 248.487C483.687 253.3 477.303 255.707 470.113 255.707H293.854L308.974 194.238H109.33L0 613.93H202.13L248.026 435.094H372.005L403.252 613.93H602.896L572.119 431.587C596.512 426.568 618.351 414.879 637.569 396.384C656.788 377.888 669.623 356.023 676.141 330.721L733.259 104.442C740.718 74.1199 737.492 49.1612 723.515 29.4967C709.538 9.83224 687.699 0 658.065 0ZM714.914 99.56L657.796 325.77C652.151 347.704 641.265 366.199 624.6 382.288C607.868 398.378 589.523 408.278 568.49 412.61L550.347 416.323L553.505 434.956L580.452 594.61H419.178L390.753 431.793L387.931 415.773H233.444L229.748 430.281L187.548 594.61H24.6615L123.912 213.834H284.648L275.442 251.1L269.462 275.234H470.046C481.537 275.234 492.423 271.177 501.427 263.545C510.163 256.119 516.076 246.7 519.1 235.355L532.271 184.406V184.062L532.405 183.718C536.034 167.492 531.061 156.147 526.29 149.478C519.167 139.508 508.013 134.076 494.909 134.076H143.803L173.705 19.3894H658.065C681.449 19.3894 697.846 26.4027 708.127 40.9104C718.744 55.7618 720.894 75.0138 714.846 99.56H714.914Z" fill="white"/>
<path d="M1363.5 0H803.547L750.797 204.827H930.953L825.991 613.93H1025.63L1129.59 204.827H1309.75L1363.44 0L1363.5 0ZM1129.66 185.369H1115.01L1111.31 199.876L1010.99 594.472H850.585L949.298 209.709L955.547 185.369H775.391L818.129 19.3894H1338.77L1295.23 185.369H1129.66Z" fill="white"/>
<path d="M1991.6 29.4967C1977.76 9.83224 1956.05 0 1926.42 0H1508.52C1478.88 0 1451.94 9.83224 1427.74 29.4967C1403.49 49.1612 1387.63 74.12 1380.17 104.442L1355.24 202.833C1347.11 233.155 1350.2 258.113 1364.51 277.778C1378.82 297.442 1400.8 307.275 1430.43 307.275V287.885C1406.91 287.885 1390.38 280.803 1379.7 266.227C1368.95 251.513 1366.93 232.467 1373.58 207.783L1398.51 109.255C1405.03 82.9896 1418.4 61.8812 1439.5 44.7608C1460.47 27.7778 1483.05 19.4582 1508.52 19.4582H1926.42C1949.8 19.4582 1966.06 26.4714 1976.21 40.8416C1986.69 55.7619 1988.84 75.0138 1982.73 99.56L1957.8 198.089C1951.28 224.354 1937.84 245.462 1916.61 262.514C1895.44 279.566 1872.79 287.816 1847.26 287.816V307.206C1876.89 307.206 1903.91 297.374 1928.3 277.709C1952.69 258.045 1968.68 233.086 1976.14 202.764L2001.07 104.373C2008.53 74.0512 2005.37 49.0924 1991.53 29.428L1991.6 29.4967Z" fill="white"/>
<path d="M1897.19 347.842C1907.67 362.556 1909.75 381.67 1903.7 406.217L1878.77 504.745C1872.25 531.01 1858.82 552.119 1837.58 569.171C1816.41 586.222 1793.77 594.473 1768.3 594.473H1351.41C1328.02 594.473 1311.63 587.46 1301.35 572.952C1290.73 558.101 1288.58 538.849 1294.56 514.44L1319.89 416.255C1327.01 389.784 1340.66 368.675 1361.69 351.692C1382.52 334.847 1405.03 326.665 1430.5 326.665V307.275C1400.86 307.275 1374.05 317.039 1349.93 336.497C1325.87 355.955 1309.75 380.845 1301.61 411.167L1276.21 509.558C1268.75 539.88 1271.98 564.839 1285.96 584.503C1299.93 604.168 1321.77 614 1351.41 614H1768.3C1797.93 614 1824.95 604.168 1849.34 584.503C1873.73 564.839 1889.73 539.88 1897.19 509.558L1922.12 411.167C1929.57 380.845 1926.42 355.955 1912.57 336.497C1898.73 317.039 1877.03 307.275 1847.39 307.275V326.665C1870.78 326.665 1887.11 333.609 1897.25 347.911L1897.19 347.842Z" fill="white"/>
<path d="M1753.11 133.939H1602.26C1590.7 133.939 1580.01 137.927 1570.54 145.766C1561.33 153.398 1555.35 163.367 1553.07 174.712L1546.01 199.327L1545.88 199.877L1545.74 200.496C1542.18 216.654 1546.95 227.861 1551.59 234.393C1558.58 244.226 1569.46 249.657 1582.3 249.657H1734.1C1745.66 249.657 1756.21 245.807 1765.55 238.106C1774.55 230.68 1780.67 221.192 1783.69 209.916L1790.54 184.407C1794.98 167.63 1789.8 155.942 1784.63 148.997C1779.46 142.122 1769.85 133.939 1753.25 133.939H1753.11ZM1772.13 179.319L1765.28 204.828C1763.33 212.185 1759.43 218.235 1753.58 223.048C1747.74 227.861 1741.22 230.268 1734.03 230.268H1582.23C1575.38 230.268 1570.27 227.861 1566.84 223.048C1563.42 218.235 1562.54 212.116 1564.16 204.828L1571.48 179.319C1572.76 171.962 1576.45 165.843 1582.43 160.823C1588.48 155.804 1595.07 153.329 1602.19 153.329H1753.05C1760.24 153.329 1765.68 155.804 1769.38 160.823C1773.14 165.843 1774.01 171.962 1772.06 179.319H1772.13Z" fill="white"/>
<path d="M1694.05 364.204H1543.19C1531.7 364.204 1521.15 368.054 1511.74 375.549C1502.4 383.043 1496.29 393.013 1494 404.496L1486.88 429.661L1486.74 430.211L1486.61 430.761C1483.05 446.919 1487.82 458.126 1492.46 464.658C1499.44 474.49 1510.33 479.922 1523.16 479.922H1675.5C1686.99 479.922 1697.88 475.865 1706.88 468.233C1715.62 460.808 1721.53 451.388 1724.56 440.112L1731.34 414.19C1735.84 397.276 1730.47 385.587 1725.23 378.781C1720.05 372.111 1710.44 364.204 1693.98 364.204H1694.05ZM1713.06 409.102L1706.21 435.092C1704.26 442.449 1700.43 448.5 1694.72 453.313C1689.01 458.126 1682.62 460.533 1675.43 460.533H1523.1C1516.24 460.533 1511.14 458.126 1507.71 453.313C1504.28 448.5 1503.41 442.381 1505.02 435.092L1512.35 409.102C1513.62 401.745 1517.32 395.695 1523.3 390.882C1529.35 386.069 1535.93 383.662 1543.05 383.662H1693.91C1701.1 383.662 1706.55 386.069 1710.24 390.882C1714.01 395.695 1714.88 401.814 1712.93 409.102H1713.06Z" fill="white"/>
</svg>
