<svg width="2132" height="1951" viewBox="0 0 2132 1951" fill="none" xmlns="http://www.w3.org/2000/svg">
<g filter="url(#filter0_f_1_29)">
<path d="M144.293 1321.31C87.5448 1212.6 94.3752 1086.06 151.238 971.175L151.097 815.117C148.875 817.363 146.607 819.609 144.385 821.898C103.115 862.721 58.6175 898.575 11.7098 929.504C2.49356 1027.85 20.6522 1129.82 70.0341 1224.45C95.0434 1272.39 126.448 1315.17 162.614 1352.36C155.978 1342.42 149.886 1332.09 144.293 1321.36L144.293 1321.31ZM1142.93 627.713C1126.02 651.399 1111.93 677.502 1101.15 705.626C1100.83 703.207 1100.56 700.699 1100.24 698.236C1025.07 653.295 959.604 590.35 911.462 511.286C892.005 479.274 876.224 446.202 864.119 412.511C801.956 390.305 732.954 384.208 663.335 398.35C628.117 405.554 595.173 417.419 564.956 433.153C572.535 430.815 580.295 428.784 588.146 427.237C703.603 403.725 820.819 467.239 889.144 577.874C782.041 603.622 666.928 555.549 614.999 456.03C611.362 448.994 608.087 441.87 605.221 434.657C522.194 429.76 437.049 442.685 356.008 475.404C327.539 567.296 282.409 655.684 220.521 735.903L372.222 735.765C390.233 724.662 409.061 714.305 428.571 704.696C602.71 619.315 793.174 617.075 934.814 684.262C936.545 690.728 938.185 697.283 939.598 703.837C941.877 714.35 943.748 724.82 945.119 735.246L1123.15 735.085C1121.35 706.356 1124.87 677.491 1134.42 649.324C1136.91 641.93 1139.85 634.712 1143.02 627.625L1142.93 627.713ZM906.163 1926.2C663.982 1913.26 480.965 1668.41 497.408 1379.38C500.357 1328.47 509.255 1279.54 523.285 1233.63L276.941 1233.86C267.435 1263.39 260.428 1294.1 256.235 1325.7C349.421 1421.48 420.84 1540.34 460.001 1676.48C475.802 1731.55 485.612 1786.76 489.792 1841.62C573.048 1898.56 673.262 1934.33 782.481 1940.13C837.817 1943.07 891.739 1938.18 943.067 1926.39C930.857 1926.93 918.555 1926.94 906.163 1926.24L906.163 1926.2ZM1387.94 353.476C1363.9 327.496 1336.78 305.742 1307.63 288.301C1313.49 293.443 1319.12 298.938 1324.53 304.741C1403.22 389.936 1405.07 520.034 1340.39 632.77C1263.79 555.756 1249.25 435.041 1312.17 341.666C1316.66 335.062 1321.42 328.766 1326.4 322.778C1289.25 250.568 1235.13 185.633 1165.41 133.956C1033.21 164.257 891.311 164.826 750.063 129.58C692.992 115.377 638.731 95.9353 587.688 72.047C495.216 113.444 413.116 179.691 353.278 268.443C322.997 313.436 300.435 361.193 285.318 410.132C290.892 399.612 297.056 389.311 303.81 379.273C436.495 182.397 746.769 151.186 996.798 309.525C1160.17 412.991 1257.45 571.733 1268.17 724.262C1264.36 727.829 1260.5 731.484 1256.51 734.964L1360.41 734.87C1372.36 695.085 1389.12 655.912 1411.15 618.143C1429.96 585.832 1451.63 556.026 1475.71 528.99C1464.44 465.776 1435.33 404.734 1387.98 353.388L1387.94 353.476ZM1827.64 1589.05C1694.95 1785.88 1384.68 1817.05 1134.61 1658.71C971.282 1555.29 874.044 1396.55 863.284 1244.02C867.093 1240.36 871.039 1236.75 875.031 1233.27L771.082 1233.36C759.18 1273.19 742.284 1312.37 720.349 1350.14C701.54 1382.45 679.869 1412.16 655.79 1439.24C667.06 1502.5 696.166 1563.54 743.512 1614.89C767.548 1640.87 794.667 1662.62 823.824 1680.07C817.964 1674.88 812.33 1669.38 806.924 1663.63C728.227 1578.43 726.384 1448.29 791.057 1335.6C867.658 1412.61 882.202 1533.24 819.282 1626.61C814.794 1633.22 810.034 1639.51 805.046 1645.5C842.197 1717.71 896.318 1782.73 966.043 1834.37C1098.24 1804.02 1240.14 1803.5 1381.34 1838.65C1438.46 1852.95 1492.72 1872.3 1543.81 1896.23C1636.28 1854.83 1718.33 1788.59 1778.22 1699.79C1808.5 1654.8 1831.02 1607.13 1846.18 1558.1C1840.6 1568.62 1834.44 1578.97 1827.69 1589.05L1827.64 1589.05ZM1671.4 291.887C1655.6 236.817 1645.79 181.565 1641.61 126.748C1558.36 69.8032 1458.14 34.0363 1348.92 28.1957C1293.59 25.254 1239.67 30.1866 1188.34 41.9804C1200.55 41.3973 1212.85 41.4302 1225.24 42.0789C1467.42 55.0146 1650.44 299.87 1634 588.991C1631.14 639.898 1622.24 688.787 1608.21 734.689L1854.46 734.466C1863.92 704.935 1870.93 674.218 1875.17 642.669C1781.98 546.839 1710.56 427.979 1671.4 291.887ZM2061.42 743.913C2036.41 695.979 2005 653.198 1968.84 615.965C1975.47 625.947 1981.56 636.28 1987.16 647.055C2043.91 755.765 2037.08 882.307 1980.21 997.191L1980.35 1153.21C1982.58 1150.96 1984.84 1148.71 1987.07 1146.42C2028.34 1105.65 2072.83 1069.79 2119.74 1038.86C2128.96 940.52 2110.8 838.551 2061.42 743.913ZM1702.92 1263.54C1528.79 1348.92 1338.32 1351.16 1196.68 1283.97C1194.95 1277.55 1193.31 1271.04 1191.9 1264.44C1189.62 1253.93 1187.75 1243.41 1186.38 1232.94L1008.35 1233.11C1010.14 1261.83 1006.63 1290.7 997.078 1318.87C994.588 1326.3 991.644 1333.57 988.473 1340.57C1005.38 1316.88 1019.48 1290.78 1030.25 1262.65C1030.57 1265.12 1030.85 1267.62 1031.17 1270.04C1106.33 1314.98 1171.8 1377.97 1219.94 1457.04C1239.4 1488.96 1255.18 1522.08 1267.29 1555.81C1329.36 1578.02 1398.45 1584.07 1468.07 1569.88C1503.29 1562.72 1536.23 1550.86 1566.45 1535.08C1558.87 1537.46 1551.11 1539.45 1543.26 1541.04C1427.8 1564.51 1310.59 1501.04 1242.26 1390.4C1349.36 1364.61 1464.48 1412.73 1516.41 1512.25C1520.04 1519.24 1523.32 1526.41 1526.18 1533.62C1609.21 1538.52 1694.36 1525.59 1775.4 1492.87C1803.82 1400.89 1849 1312.59 1910.97 1232.33L1759.27 1232.47C1741.26 1243.57 1722.43 1253.93 1702.83 1263.54L1702.92 1263.54Z" fill="black" fill-opacity="0.72"/>
</g>
<g filter="url(#filter1_d_1_29)">
<path d="M1042.84 929.037H1071.11L1078.25 968.904H1123.82L1116.82 928.234C1122.4 927.119 1127.35 924.533 1131.76 920.386C1136.13 916.283 1139.07 911.378 1140.55 905.714L1153.57 855.278C1155.26 848.5 1154.55 842.97 1151.34 838.555C1148.13 834.141 1143.18 832 1136.4 832H1022.55L1013.41 866.204H1099.16C1100.81 866.204 1102.02 866.739 1102.82 867.854C1103.62 868.969 1103.84 870.351 1103.49 871.956L1100.5 883.328C1100.05 884.978 1099.16 886.316 1097.87 887.431C1096.58 888.545 1095.1 889.036 1093.45 889.036H1053.23L1056.66 875.346H1011.09L986.16 968.904H1032.27L1042.75 929.037H1042.84Z" fill="white"/>
<path d="M1143.98 962.349C1147.19 966.719 1152.14 968.904 1158.92 968.904H1249.71C1256.49 968.904 1262.64 966.719 1268.22 962.349C1273.79 957.979 1277.4 952.405 1279.14 945.626L1302.87 855.278C1304.56 848.5 1303.85 842.97 1300.64 838.555C1297.43 834.141 1292.52 832 1285.83 832H1195.04C1188.26 832 1182.11 834.185 1176.49 838.555C1170.87 842.926 1167.21 848.5 1165.52 855.278L1141.79 945.626C1140.1 952.405 1140.81 957.934 1144.02 962.349H1143.98ZM1194.77 917.576L1203.78 883.373C1204.09 881.723 1204.94 880.385 1206.32 879.314C1207.75 878.244 1209.26 877.664 1210.87 877.664H1245.52C1247.17 877.664 1248.37 878.2 1249.18 879.314C1249.98 880.429 1250.2 881.723 1249.84 883.373L1240.7 917.576C1240.39 919.226 1239.59 920.564 1238.21 921.679C1236.82 922.749 1235.31 923.284 1233.7 923.284H1198.96C1197.31 923.284 1196.11 922.749 1195.35 921.679C1194.59 920.609 1194.37 919.226 1194.73 917.576H1194.77Z" fill="white"/>
<path d="M1446.51 832.044H1318.74L1306.7 877.709H1347.82L1323.87 968.904H1369.45L1393.17 877.709H1434.24L1446.51 832.044Z" fill="white"/>
<path d="M1532.04 872.001C1533.69 872.001 1534.89 872.536 1535.69 873.651C1536.5 874.721 1536.68 876.059 1536.23 877.709L1534.67 883.373H1466.48C1459.79 883.373 1453.73 885.558 1448.29 889.928C1442.85 894.298 1439.19 899.872 1437.32 906.651L1426.97 945.626C1425.1 952.405 1425.81 957.934 1429.07 962.349C1432.32 966.764 1437.36 968.904 1444.1 968.904H1558.17L1564.28 945.626L1588 855.278C1589.88 848.589 1589.12 843.059 1585.82 838.645C1582.52 834.23 1577.48 832 1570.75 832H1456.67L1446.19 872.001H1531.95H1532.04ZM1524.46 923.24L1522.9 929.037H1482.89C1481.24 929.037 1480.04 928.502 1479.24 927.387C1478.44 926.272 1478.21 924.89 1478.57 923.284C1479.15 921.634 1480.13 920.297 1481.51 919.226C1482.89 918.156 1484.37 917.576 1485.93 917.576H1525.79L1524.46 923.24Z" fill="white"/>
<path d="M1609.1 968.904H1654.67L1678.4 877.709H1719.51L1731.73 832.044H1604.01L1591.97 877.709H1633.09L1609.1 968.904Z" fill="white"/>
<path d="M1870.82 838.599C1867.61 834.229 1862.62 832.044 1855.84 832.044H1765.04C1758.27 832.044 1752.16 834.229 1746.63 838.599C1741.1 842.97 1737.4 848.544 1735.52 855.322L1712.02 945.67C1710.15 952.449 1710.86 957.978 1714.12 962.393C1717.37 966.808 1722.41 968.948 1729.15 968.948H1843.22L1853.7 929.081H1767.94C1766.29 929.081 1765.09 928.546 1764.29 927.431C1763.48 926.316 1763.26 924.934 1763.62 923.329L1765.27 917.665H1833.45C1840.23 917.665 1846.34 915.48 1851.82 911.11C1857.31 906.739 1861.01 901.165 1862.84 894.387L1872.87 855.411C1874.75 848.633 1874.03 843.103 1870.82 838.689V838.599ZM1821.32 877.709C1820.88 879.359 1819.98 880.696 1818.6 881.811C1817.22 882.882 1815.7 883.417 1814.1 883.417H1774.1L1775.75 877.753C1776.06 876.103 1776.86 874.765 1778.24 873.695C1779.63 872.625 1781.14 872.045 1782.75 872.045H1817.04C1818.69 872.045 1819.89 872.58 1820.65 873.695C1821.41 874.765 1821.63 876.103 1821.28 877.753L1821.32 877.709Z" fill="white"/>
<path d="M1096.13 1039.51L1088.37 1063.62H1042.6C1040.77 1063.62 1039.37 1063.12 1038.5 1062.13C1037.63 1061.13 1037.36 1059.85 1037.8 1058.36L1048.09 1026.64C1048.44 1025.15 1049.4 1023.87 1050.97 1022.87C1052.54 1021.88 1054.28 1021.38 1056.2 1021.38H1153.76L1167.54 979H1038.06C1030.39 979 1023.33 981.062 1016.96 985.115C1010.6 989.168 1006.41 994.36 1004.49 1000.62L977.552 1084.38C975.634 1090.64 976.419 1095.83 980.081 1099.88C983.743 1103.94 989.41 1106 997.083 1106H1126.56L1140.25 1063.62L1148.1 1039.51H1096.13Z" fill="white"/>
<path d="M1329 983.115C1325.35 979.062 1319.69 977 1312.03 977H1182.79L1175.83 998.19L1141.54 1104H1193.93L1205.85 1067.02H1237.97L1246.06 1104H1297.76L1289.75 1066.31C1296.11 1065.25 1301.76 1062.9 1306.72 1059.06C1311.68 1055.22 1314.99 1050.67 1316.73 1045.48L1331.53 998.688C1333.44 992.431 1332.66 987.24 1329 983.186V983.115ZM1274.78 1014.12L1271.39 1024.64C1270.87 1026.14 1269.91 1027.42 1268.43 1028.41C1266.95 1029.41 1265.3 1029.9 1263.47 1029.9H1217.78L1224.39 1008.71H1269.91C1271.74 1008.71 1273.13 1009.21 1274.09 1010.28C1275.04 1011.35 1275.31 1012.55 1274.87 1014.12H1274.78Z" fill="white"/>
<path d="M1498 985.115C1494.34 981.062 1488.76 979 1481.18 979H1378.02C1370.35 979 1363.3 981.062 1356.94 985.115C1350.57 989.169 1346.39 994.36 1344.47 1000.62L1317.55 1084.38C1315.63 1090.64 1316.42 1095.83 1320.08 1099.88C1323.74 1103.94 1329.4 1106 1337.07 1106H1440.23C1447.9 1106 1454.96 1103.94 1461.23 1099.88C1467.5 1095.83 1471.69 1090.64 1473.6 1084.38L1500.53 1000.62C1502.44 994.36 1501.66 989.169 1498 985.115ZM1440.41 1026.64L1430.04 1058.36C1429.69 1059.85 1428.73 1061.13 1427.16 1062.13C1425.59 1063.12 1423.85 1063.62 1422.02 1063.62H1382.55C1380.72 1063.62 1379.33 1063.12 1378.46 1062.13C1377.58 1061.13 1377.32 1059.85 1377.76 1058.36L1388.04 1026.64C1388.39 1025.15 1389.35 1023.87 1390.92 1022.87C1392.48 1021.88 1394.23 1021.38 1396.14 1021.38H1435.53C1437.36 1021.38 1438.75 1021.88 1439.71 1022.87C1440.67 1023.87 1440.93 1025.08 1440.49 1026.64H1440.41Z" fill="white"/>
<path d="M1676.54 979H1624.69L1595.46 1068.97H1550.31C1548.49 1068.97 1547.01 1068.4 1546.05 1067.34C1545.1 1066.27 1544.83 1064.92 1545.36 1063.43L1572.5 979.071H1520.3L1486.55 1084.4C1484.64 1090.65 1485.42 1095.84 1489.07 1099.89C1492.73 1103.94 1498.38 1106 1506.04 1106H1635.22L1647.31 1069.04H1647.05L1676.36 979.071L1676.54 979Z" fill="white"/>
<path d="M1820.95 979.142H1692.53L1683.19 1007.71L1651.54 1106H1703.6L1710.52 1084.82H1787.31C1794.92 1084.82 1801.84 1082.76 1808.07 1078.71C1814.29 1074.66 1818.45 1069.47 1820.52 1063.22L1840.41 1000.6C1842.49 994.351 1841.71 989.163 1837.99 985.112C1834.27 981.061 1828.65 979 1821.04 979L1820.95 979.142ZM1780.48 1026.76L1777.19 1037.28C1776.68 1038.77 1775.72 1040.05 1774.17 1041.11C1772.61 1042.18 1770.97 1042.68 1769.15 1042.68H1723.92L1730.32 1021.5H1775.55C1777.37 1021.5 1778.84 1022 1779.79 1022.99C1780.74 1023.99 1781 1025.19 1780.48 1026.76Z" fill="white"/>
<path d="M495.177 843.017C489.826 835.704 481.531 832.047 470.204 832.047H279.92L264.624 889.217H407.995C410.715 889.217 412.767 890.153 414.149 892.026C415.487 893.899 415.888 896.174 415.264 898.939L410.225 917.936C409.467 920.7 408.04 922.93 405.855 924.759C403.714 926.542 401.217 927.434 398.496 927.434H331.248L337.046 904.557H260.923L219.228 1060.95H296.331L313.812 994.281H361.126L373.033 1060.95H449.2L437.472 992.988C446.747 991.115 455.087 986.745 462.4 979.877C469.758 972.965 474.664 964.804 477.116 955.395L498.878 871.067C501.732 859.74 500.528 850.465 495.177 843.106V843.017ZM491.921 869.15L470.16 953.477C468.019 961.638 463.872 968.55 457.495 974.526C451.118 980.546 444.116 984.247 436.089 985.853L429.177 987.191L430.381 994.192L440.638 1053.64H379.143L368.306 992.943L367.236 987.012H308.327L306.9 992.408L290.846 1053.68H228.771L266.631 911.737H327.948L324.425 925.651L322.196 934.658H398.675C403.045 934.658 407.192 933.142 410.626 930.288C413.926 927.524 416.2 924.045 417.36 919.809L422.399 900.767V900.633L422.488 900.499C423.826 894.479 421.953 890.198 420.125 887.745C417.404 884.044 413.123 881.993 408.173 881.993H274.212L285.628 839.271H470.338C479.257 839.271 485.544 841.902 489.424 847.298C493.482 852.828 494.33 860.008 492.011 869.15H491.921Z" fill="white"/>
<path d="M491.921 869.103L470.159 953.431C468.019 961.591 463.872 968.503 457.495 974.479C451.118 980.499 444.116 984.201 436.089 985.806L429.177 987.144L430.381 994.145L440.638 1053.59H379.142L368.306 992.896L367.236 986.965H308.327L306.9 992.361L290.846 1053.63H228.771L266.631 911.69H327.948L324.425 925.604L322.195 934.612H398.675C403.045 934.612 407.192 933.096 410.626 930.242C413.926 927.477 416.2 923.998 417.36 919.762L422.399 900.72V900.586L422.488 900.453C423.826 894.432 421.953 890.151 420.125 887.699C417.404 883.997 413.123 881.946 408.173 881.946H274.212L285.628 839.225H470.338C479.256 839.225 485.544 841.856 489.424 847.252C493.482 852.781 494.329 859.961 492.01 869.103H491.921Z" fill="white"/>
<path d="M525.723 832.046L505.566 908.391H574.286L534.24 1060.9H610.407L650.052 908.391H718.772L739.285 832.046H525.723ZM713.242 901.167H644.477L643.095 906.563L604.833 1053.63H543.65L581.287 910.219L583.651 901.167H514.976L531.253 839.27H729.831L713.242 901.167Z" fill="white"/>
<path d="M729.832 839.27L713.243 901.167H644.479L643.096 906.518L604.834 1053.63H543.696L581.333 910.22L583.697 901.167H515.021L531.254 839.27H729.832Z" fill="white"/>
<path d="M982.457 870.976L972.959 907.633C970.149 918.96 964.04 928.236 954.72 935.594C945.4 942.907 935.098 946.564 923.816 946.564V939.34C933.493 939.34 942.144 936.218 950.216 929.886C958.332 923.509 963.46 915.66 965.913 905.894L975.456 869.148C977.775 859.962 976.928 852.827 972.959 847.252C969.079 841.901 962.881 839.27 953.962 839.27H794.537C784.86 839.27 776.254 842.347 768.227 848.679C760.2 855.056 755.071 862.905 752.574 872.716L743.075 909.461C740.578 918.692 741.336 925.783 745.394 931.223C749.452 936.664 755.785 939.34 764.748 939.34V946.564C753.466 946.564 745.082 942.907 739.642 935.594C734.157 928.236 733.042 918.96 736.074 907.633L745.573 870.976C748.427 859.649 754.492 850.374 763.767 843.016C772.998 835.702 783.255 832.046 794.537 832.046H953.962C965.244 832.046 973.539 835.702 978.801 843.016C984.063 850.374 985.311 859.649 982.413 870.976H982.457Z" fill="white"/>
<path d="M952.313 985.271L942.814 1021.97C939.96 1033.25 933.896 1042.57 924.531 1049.89C915.255 1057.25 904.909 1060.9 893.627 1060.9H734.604C723.321 1060.9 714.982 1057.25 709.631 1049.89C704.324 1042.57 703.031 1033.25 705.93 1021.97L715.607 985.271C718.728 973.989 724.838 964.713 734.024 957.444C743.21 950.176 753.467 946.563 764.75 946.563V953.832C755.073 953.832 746.466 956.865 738.528 963.153C730.457 969.485 725.284 977.333 722.563 987.189L712.886 1023.8C710.612 1032.94 711.459 1040.08 715.473 1045.61C719.442 1051.05 725.64 1053.63 734.559 1053.63H893.582C903.304 1053.63 911.955 1050.56 920.027 1044.22C928.143 1037.85 933.271 1030 935.724 1020.23L945.223 983.488C947.541 974.301 946.739 967.166 942.77 961.725C938.89 956.374 932.692 953.832 923.773 953.832V946.563C935.055 946.563 943.349 950.176 948.612 957.444C953.874 964.713 955.078 973.989 952.224 985.271H952.313Z" fill="white"/>
<path d="M899.869 887.609C897.863 885.023 894.206 881.991 887.874 881.991H830.347C825.932 881.991 821.874 883.462 818.217 886.361C814.739 889.17 812.42 892.961 811.573 897.153L808.897 906.339L808.808 906.517V906.74C807.381 912.761 809.209 916.952 810.949 919.361C813.624 923.017 817.771 925.069 822.677 925.069H880.605C885.02 925.069 889.078 923.597 892.601 920.743C896.034 917.934 898.353 914.455 899.513 910.219L902.144 900.72C903.838 894.477 901.832 890.062 899.869 887.52V887.609ZM895.143 898.892L892.511 908.39C891.798 911.111 890.282 913.385 888.052 915.169C885.822 916.997 883.325 917.889 880.605 917.889H822.677C820.09 917.889 818.128 916.997 816.835 915.169C815.542 913.385 815.185 911.111 815.854 908.39L818.663 898.892C819.154 896.127 820.536 893.853 822.855 891.98C825.13 890.107 827.627 889.17 830.392 889.17H887.918C890.683 889.17 892.734 890.107 894.161 891.98C895.588 893.853 895.901 896.127 895.187 898.892H895.143Z" fill="white"/>
<path d="M877.215 973.232C875.253 970.779 871.596 967.791 865.309 967.791H807.782C803.412 967.791 799.354 969.218 795.786 972.027C792.219 974.837 789.9 978.583 789.008 982.819L786.288 992.184L786.198 992.585C784.816 998.606 786.644 1002.8 788.383 1005.21C791.059 1008.86 795.251 1010.91 800.112 1010.91H858.218C862.588 1010.91 866.736 1009.4 870.169 1006.54C873.514 1003.78 875.788 1000.3 876.903 996.064L879.534 986.431C881.229 980.144 879.222 975.773 877.171 973.232H877.215ZM872.577 984.558L869.946 994.191C869.233 996.956 867.761 999.23 865.621 1001.01C863.436 1002.8 860.983 1003.69 858.263 1003.69H800.156C797.57 1003.69 795.608 1002.8 794.315 1001.01C793.021 999.23 792.665 996.956 793.333 994.191L796.143 984.558C796.633 981.794 798.016 979.519 800.335 977.735C802.609 975.952 805.106 975.015 807.871 975.015H865.398C868.118 975.015 870.169 975.952 871.641 977.735C873.113 979.519 873.38 981.794 872.667 984.558H872.577Z" fill="white"/>
<path d="M972.961 847.253C969.081 841.901 962.883 839.27 953.964 839.27H794.539C784.862 839.27 776.256 842.347 768.229 848.68C760.202 855.056 755.073 862.905 752.576 872.716L743.077 909.462C740.58 918.693 741.338 925.783 745.396 931.224C749.454 936.664 755.787 939.34 764.75 939.34V953.833C755.073 953.833 746.467 956.865 738.529 963.153C730.457 969.485 725.284 977.334 722.564 987.189L712.887 1023.8C710.613 1032.94 711.46 1040.08 715.474 1045.61C719.442 1051.05 725.641 1053.63 734.56 1053.63H893.583C903.305 1053.63 911.956 1050.56 920.027 1044.23C928.144 1037.85 933.272 1030 935.725 1020.23L945.223 983.488C947.542 974.302 946.739 967.166 942.77 961.726C938.891 956.375 932.692 953.833 923.773 953.833V939.34C933.45 939.34 942.102 936.218 950.173 929.886C958.289 923.509 963.418 915.66 965.87 905.894L975.414 869.148C977.732 859.962 976.885 852.827 972.916 847.253H972.961ZM879.58 986.431L876.949 996.064C875.835 1000.3 873.56 1003.78 870.216 1006.54C866.782 1009.4 862.635 1010.91 858.264 1010.91H800.158C795.297 1010.91 791.105 1008.86 788.43 1005.21C786.691 1002.75 784.862 998.605 786.245 992.585L786.334 992.184L789.054 982.819C789.946 978.538 792.265 974.792 795.832 972.027C799.4 969.218 803.458 967.791 807.828 967.791H865.355C871.598 967.791 875.299 970.734 877.262 973.231C879.313 975.773 881.32 980.143 879.625 986.431H879.58ZM902.101 900.81L899.469 910.309C898.31 914.545 895.991 918.024 892.557 920.833C888.99 923.643 884.976 925.159 880.562 925.159H822.634C817.728 925.159 813.581 923.107 810.905 919.451C809.166 916.998 807.338 912.851 808.72 906.83V906.608L808.854 906.429L811.53 897.243C812.421 893.006 814.74 889.26 818.174 886.451C821.786 883.552 825.889 882.081 830.304 882.081H887.83C894.163 882.081 897.819 885.113 899.826 887.699C901.788 890.241 903.795 894.656 902.101 900.899V900.81Z" fill="white"/>
</g>
<path d="M141.01 1310.43C85.3561 1200.19 92.179 1071.94 148.145 955.545V797.369C145.96 799.643 143.73 801.918 141.545 804.237C100.964 845.576 57.2171 881.875 11.1066 913.18C1.96476 1012.85 19.7133 1116.22 68.1427 1212.19C92.6695 1260.79 123.484 1304.18 158.981 1341.91C152.47 1331.83 146.495 1321.35 141.01 1310.47V1310.43ZM1122.71 608.334C1106.07 632.326 1092.21 658.77 1081.59 687.266C1081.28 684.813 1081.01 682.271 1080.7 679.774C1006.9 634.154 942.636 570.295 895.411 490.115C876.325 457.65 860.85 424.115 848.988 389.956C787.939 367.391 720.156 361.148 651.748 375.418C617.143 382.687 584.767 394.683 555.068 410.603C562.515 408.24 570.14 406.188 577.855 404.628C691.303 380.903 806.401 445.387 873.426 557.586C768.184 583.584 655.137 534.754 604.21 433.837C600.643 426.702 597.432 419.477 594.623 412.164C513.06 407.125 429.401 420.146 349.755 453.235C321.706 546.348 277.29 635.893 216.419 717.144H365.453C383.157 705.906 401.663 695.427 420.839 685.705C591.992 599.326 779.109 597.23 918.199 665.459C919.893 672.015 921.499 678.659 922.881 685.304C925.111 695.962 926.939 706.575 928.277 717.144H1103.18C1101.44 688.024 1104.91 658.77 1114.32 630.23C1116.78 622.738 1119.68 615.425 1122.8 608.245L1122.71 608.334ZM888.945 1924.22C651.034 1910.89 471.453 1662.54 487.864 1369.6C490.807 1318.01 499.592 1268.42 513.416 1221.91H271.403C262.039 1251.83 255.126 1282.96 250.979 1314.97C342.442 1412.15 412.5 1532.68 450.851 1670.7C466.325 1726.54 475.913 1782.5 479.971 1838.11C561.712 1895.9 660.132 1932.25 767.425 1938.22C821.786 1941.26 874.764 1936.35 925.2 1924.44C913.204 1924.98 901.119 1924.98 888.945 1924.27V1924.22ZM1363.65 330.601C1340.06 304.246 1313.44 282.172 1284.81 264.468C1290.56 269.685 1296.09 275.26 1301.4 281.146C1378.63 367.57 1380.33 499.435 1316.69 613.641C1241.51 535.512 1227.33 413.145 1289.22 318.561C1293.64 311.872 1298.32 305.495 1303.23 299.43C1266.79 226.206 1213.68 160.34 1145.23 107.897C1015.32 138.489 875.923 138.935 737.19 103.081C681.135 88.6326 627.845 68.8774 577.721 44.6181C486.838 86.4921 406.123 153.562 347.258 243.464C317.469 289.039 295.261 337.424 280.367 387.013C285.852 376.355 291.917 365.92 298.561 355.752C429.089 156.327 733.935 124.977 979.427 285.695C1139.83 390.714 1235.26 551.699 1245.65 706.308C1241.91 709.92 1238.12 713.621 1234.19 717.144H1336.27C1348.04 676.831 1364.54 637.142 1386.22 598.88C1404.72 566.148 1426.04 535.958 1449.72 508.577C1438.7 444.495 1410.16 382.598 1363.7 330.512L1363.65 330.601ZM1794.52 1583.34C1663.99 1782.72 1359.15 1814.03 1113.61 1653.31C953.25 1548.34 857.863 1387.35 847.427 1232.74C851.173 1229.04 855.053 1225.39 858.978 1221.86H756.857C745.128 1262.22 728.495 1301.91 706.911 1340.17C688.404 1372.9 667.088 1403 643.409 1430.43C654.424 1494.56 682.964 1556.45 729.431 1608.54C753.021 1634.89 779.644 1656.97 808.274 1674.67C802.521 1669.41 796.991 1663.84 791.685 1657.99C714.447 1571.57 712.753 1439.66 776.389 1325.5C851.575 1403.63 865.756 1525.91 803.859 1620.49C799.444 1627.18 794.762 1633.56 789.856 1639.62C826.29 1712.84 879.402 1778.8 947.854 1831.2C1077.76 1800.56 1217.16 1800.16 1355.85 1835.93C1411.95 1850.46 1465.24 1870.13 1515.41 1894.43C1606.29 1852.56 1686.96 1785.49 1745.87 1695.54C1775.66 1649.97 1797.82 1601.67 1812.76 1551.99C1807.27 1562.65 1801.21 1573.13 1794.57 1583.34H1794.52ZM1642.19 268.437C1626.71 212.605 1617.12 156.594 1613.07 101.03C1531.33 43.2357 1432.91 6.89137 1325.61 0.871147C1271.25 -2.16126 1218.27 2.78866 1167.84 14.6953C1179.83 14.1156 1191.92 14.1602 1204.09 14.8291C1442 28.1628 1621.58 276.508 1605.17 569.537C1602.32 621.133 1593.53 670.677 1579.71 717.189H1821.63C1830.95 687.266 1837.87 656.139 1842.06 624.165C1750.6 526.95 1680.54 406.411 1642.19 268.437ZM2024.94 726.955C2000.41 678.347 1969.6 634.957 1934.1 597.185C1940.61 607.308 1946.59 617.788 1952.07 628.714C2007.73 738.951 2000.9 867.204 1944.94 983.595V1141.73C1947.12 1139.45 1949.35 1137.18 1951.54 1134.86C1992.12 1093.56 2035.86 1057.26 2081.98 1025.96C2091.12 926.291 2073.37 822.922 2024.94 726.955ZM1672.29 1253.3C1501.13 1339.68 1314.02 1341.78 1174.93 1273.55C1173.23 1267.04 1171.63 1260.44 1170.25 1253.75C1168.02 1243.09 1166.19 1232.43 1164.85 1221.82H989.951C991.69 1250.94 988.212 1280.19 978.802 1308.73C976.35 1316.27 973.451 1323.63 970.329 1330.72C986.963 1306.72 1000.83 1280.28 1011.45 1251.78C1011.76 1254.28 1012.02 1256.82 1012.34 1259.28C1086.14 1304.9 1150.4 1368.8 1197.63 1448.98C1216.71 1481.36 1232.19 1514.94 1244.05 1549.14C1305.01 1571.7 1372.88 1577.9 1441.29 1563.59C1475.89 1556.36 1508.27 1544.37 1537.97 1528.4C1530.52 1530.81 1522.9 1532.82 1515.18 1534.42C1401.73 1558.1 1286.64 1493.66 1219.61 1381.46C1324.85 1355.42 1437.9 1404.3 1488.83 1505.21C1492.39 1512.3 1495.61 1519.57 1498.41 1526.89C1579.98 1531.93 1663.64 1518.9 1743.28 1485.82C1771.29 1392.61 1815.75 1303.16 1876.71 1221.86H1727.67C1709.97 1233.1 1691.46 1243.58 1672.2 1253.3H1672.29Z" fill="white"/>
<defs>
<filter id="filter0_f_1_29" x="0.000391006" y="17.9647" width="2131.45" height="1932.4" filterUnits="userSpaceOnUse" color-interpolation-filters="sRGB">
<feFlood flood-opacity="0" result="BackgroundImageFix"/>
<feBlend mode="normal" in="SourceGraphic" in2="BackgroundImageFix" result="shape"/>
<feGaussianBlur stdDeviation="4.7" result="effect1_foregroundBlur_1_29"/>
</filter>
<filter id="filter1_d_1_29" x="213.228" y="832" width="1662.67" height="282" filterUnits="userSpaceOnUse" color-interpolation-filters="sRGB">
<feFlood flood-opacity="0" result="BackgroundImageFix"/>
<feColorMatrix in="SourceAlpha" type="matrix" values="0 0 0 0 0 0 0 0 0 0 0 0 0 0 0 0 0 0 127 0" result="hardAlpha"/>
<feOffset dx="-2" dy="4"/>
<feGaussianBlur stdDeviation="2"/>
<feComposite in2="hardAlpha" operator="out"/>
<feColorMatrix type="matrix" values="0 0 0 0 0 0 0 0 0 0 0 0 0 0 0 0 0 0 0.64 0"/>
<feBlend mode="normal" in2="BackgroundImageFix" result="effect1_dropShadow_1_29"/>
<feBlend mode="normal" in="SourceGraphic" in2="effect1_dropShadow_1_29" result="shape"/>
</filter>
</defs>
</svg>
