<svg xmlns="http://www.w3.org/2000/svg" width="1000" height="1000" viewBox="0 0 250 250"><path fill="white" d="m211.996 217.725 3.004-.029 3.223.003 3.324-.013q3.476-.008 6.952-.002c3.554.003 7.106-.02 10.66-.045q3.375-.004 6.751-.002l3.23-.028 2.993.019 2.635-.002c2.704.453 3.582 1.224 5.232 3.374 1.569 6.783-.892 14.012-4 20-2.567 3.042-5.195 4.732-9 6l2.5.937c2.5 2.063 2.5 2.063 3.063 6-.417 7.05-2.19 14.574-7.125 19.75-3.53 1.901-6.205 2.439-10.153 2.442l-2.892.01-3.116-.006-3.2.003q-3.351 0-6.701-.006-5.142-.005-10.284.007-3.252 0-6.502-.004l-3.122.006-2.882-.01-2.543-.002C192 276 192 276 190 275v-2h-2c-.576-7.491.624-15.84 5.496-21.844 2.366-2.03 4.55-3.171 7.504-4.156l-2.5-1.563c-2.5-2.437-2.5-2.437-3-5.5.916-7.215 1.986-14.757 7.5-19.937 3.087-1.876 5.406-2.256 8.996-2.275M218 232c-1.43 2.354-2.087 3.48-1.625 6.25L217 240q4.438.04 8.875.062l2.55.026 2.442.01 2.254.016c1.97.004 1.97.004 3.879-1.114.747-2.98.747-2.98 1-6-.984-1.205-.984-1.205-2.858-1.114l-2.396.016-2.588.01-2.72.025-2.733.014q-3.352.018-6.705.049m-7.082 23.883c-1.096 2.07-1.096 2.07-.73 4.304.668 2.005.668 2.005 2.812 2.813 6.352.453 11.997.134 18-2q.57-2.988 1-6c-2.168-2.168-6.88-1.278-9.875-1.313l-2.512-.087c-4.795-.172-4.795-.172-8.695 2.283"/><path fill="white" d="m82.953 216.93 3.125.032 3.387.054 3.467.05q3.636.056 7.27.121c3.716.063 7.432.104 11.148.145l7.052.121 3.381.029 3.135.07 2.76.043c2.752.48 3.646 1.212 5.322 3.405 1.662 6.428-.657 13.503-2.25 19.75l-.62 2.473c-1.498 5.532-3.207 10.829-8.193 14.152C120 258 120 258 117 258l.656 2.922.844 3.828.844 3.797C120 272 120 272 120 276c-3.146.029-6.292.047-9.438.063l-2.72.025-2.588.01-2.396.016C101 276 101 276 100 275a247 247 0 0 1-1.063-8.062l-.275-2.3Q98.327 261.822 98 259H84l-.313 3.438c-.582 4.786-2.06 9.033-3.687 13.562H62c-1-2-1-2-.547-3.707l.797-2.105c1.318-3.74 2.324-7.444 3.187-11.313a500 500 0 0 1 3.625-15.125l.973-3.828L71 237c3.174-1.587 6.582-1.143 10.062-1.125l2.26-.012c5.551.01 5.551.01 6.678 1.137v5l20-1 2-9-3.38.016q-6.187.026-12.373.039-2.682.008-5.363.02-3.847.018-7.693.023l-2.436.015c-1.919 0-3.837-.051-5.755-.113l-1-1c.086-1.926.086-1.926.375-4.312l.273-2.364c.33-2.18.658-4.23 1.352-6.324 2.504-1.252 4.153-1.103 6.953-1.07"/><path fill="white" d="M375 251c1.806.08 3.614.108 5.422.098l3.105-.01 3.223-.025 3.27-.014q3.99-.018 7.98-.049c.924 4.243 1.025 7.117-.312 11.25l-.801 2.578C396 267 396 267 394 269c-3.258.195-3.258.195-7.125.125l-3.883-.055L380 269l-2 7h-8c-1.417-4.25-.193-6.719 1-11l-.77 1.898-1.043 2.477-1.019 2.46C367 274 367 274 364 276c-1.945.259-1.945.259-4.125.266l-2.39.007-2.485-.023-2.484.023-2.391-.007-2.18-.007C346 276 346 276 343 274c-.187-3.625-.187-3.625 0-7l-.812 2.813c-1.148 3.079-1.657 4.247-4.188 6.187-2.237.372-2.237.372-4.816.363l-2.815-.002-2.932-.048-2.943.01c-7.227-.056-7.227-.056-9.494-2.323.033-2.729.564-5.297 1-8l-4 2v4h2v4h-9l-1.312-2.937c-1.39-3.34-1.39-3.34-4.688-4.063l-.437 2.938C298 275 298 275 297 276c-2.67.141-5.324.042-8 0l-1-3-1.398 1.484c-3.96 2.307-7.732 1.873-12.227 1.766l-2.64-.016c-6.425-.08-6.425-.08-8.735-1.234-.421-7.162.522-14.242 3-21 2.992-2.844 5.02-3.366 9.098-3.293l2.927.03 3.038.076 3.048.04q2.797.04 5.592.1c3.448.07 6.885.015 10.332-.058l6.027-.083 3.088-.076 2.948-.029 2.703-.048L317 251l2 3 1.709-1.475c2.598-1.73 3.87-1.91 6.951-1.923l2.654-.012 2.748.035 2.76-.035 2.65.012 2.415.01c2.65.487 3.572 1.194 5.113 3.388-.312 3.688-.312 3.688-1 7l3-10h9c-1.927 11.522-1.927 11.522-4 17l7-1 .629-3.21q.464-2.084.933-4.165l.4-2.117c.48-2.031.48-2.031 2.038-5.508 4.221-1.91 6.665-2.097 11-1m-83 3 1 3Zm26 2 1 4Zm-35 3v1h6v-1zm18 0 1 2 5-1v-1zm27 0-3 9h8c1.563-4.393 1.563-4.393 2-9zm55 0v2l6-1v-1zm-110 3v6h7l-4-1-.375-1.937L275 263zm17 0-1 8c2.152-3.228 2.2-4.284 2-8z"/><path fill="white" d="m144.201 216.753 2.768.004 3.135-.01 3.396.023h3.475q3.64.006 7.283.024c3.726.018 7.453.02 11.18.02l7.062.018 3.396.003 3.135.02 2.768.011C194 217 194 217 196 218c-3.032 16.032-3.032 16.032-6 19-1.88.227-1.88.227-4.133.195l-2.441-.02-2.551-.05-2.574-.027c-2.1-.024-4.2-.06-6.301-.098l-.25 3.035c-.781 6.242-2.544 12.272-4.188 18.331-.567 2.09-1.124 4.18-1.68 6.273-2.742 10.22-2.742 10.22-3.882 11.361-2.863.073-5.7.092-8.563.063l-2.443-.014q-2.997-.02-5.994-.049c-.197-5.233.467-9.846 1.812-14.875.182-.703.364-1.405.55-2.129a166 166 0 0 1 3.978-13.023c1.096-3.275 1.866-6.614 2.66-9.973l-2.105.496c-3.13.545-6.033.601-9.208.567l-3.238-.028L137 237c-1.309-3.927-.26-6.717.812-10.562l.542-2.077c1.949-7.17 1.949-7.17 5.847-7.608"/><path fill="white" d="m381.98 217.88 2.632.006h2.972l3.232.016 3.292.005c3.485.005 6.97.018 10.454.03q3.535.008 7.069.014 8.685.017 17.369.049l-1 8-4 1 .562 1.75c.498 2.557.065 3.741-.562 6.25-.093 2.673-.045 5.324 0 8-2.557 1.279-4.367 1.113-7.227 1.098l-3.125-.01-3.273-.025-3.297-.014A2490 2490 0 0 1 399 244a216 216 0 0 1 2.562-11.312l.817-3.239L403 227l-9 1-.375 3c-1.563 10.938-1.563 10.938-3.625 13-2.67.141-5.324.042-8 0 .515-5.853 1.454-11.33 3-17h-7c.993-8.939.993-8.939 3.98-9.12M403 222l1 2Zm11 4v1h5v-1z"/><path fill="white" d="m310.625 217.805 2.64.02 2.735.05 2.734.027q2.52.027 5.04.066c2.075.03 4.15.032 6.226.032h24c-.875 7.875-.875 7.875-2 9q-3.492.553-7 1l-.84 3.246-1.098 4.191-.552 2.143c-1.397 5.307-1.397 5.307-2.51 6.42-2.67.141-5.324.042-8 0-.402-6.166 1.032-11.177 3-17l-8 1-.48 2.484-.707 3.266-.668 3.234c-1.453 3.827-2.546 5.05-6.145 7.016-3.227.51-6.366.469-9.625.375l-2.602-.004c-6.35-.09-6.35-.09-9.773-2.371 2.472-16.923 2.472-16.923 5-22 2.948-1.847 5.178-2.24 8.625-2.195M310 226c-2.29 3.435-2.178 4.985-2 9h8c1.478-2.957 1.06-5.742 1-9-3.416-.25-3.416-.25-7 0"/><path fill="white" d="M276 218c3.625-.058 7.25-.094 10.875-.125 1.033-.017 2.065-.034 3.129-.05l2.988-.02 2.761-.032C298 218 298 218 300 220c.21 5.666-.71 10.34-4 15-1.045 3.039-1.089 5.8-1 9h-9c-1.257-2.906-2-4.796-2-8l-3 1c-1.716 3.503-1.716 3.503-3 7h-7c-1.25-4.304-.665-6.838.875-11 1.34-3.672 2.43-7.154 3.125-11q.49-2.002 1-4m5 8 2 1v2h6l1-3z"/><path fill="white" d="m367.684 217.832 2.45.074c.616.03 1.232.062 1.866.094.679 3.018 1.34 6.04 2 9.063l.578 2.568c1.061 4.907 1.64 9.35 1.422 14.369h-9l-2-4h-8l-2 4h-9c.992-3.967 2.263-6.333 4.438-9.75l1.87-2.984L354 229h2l.688-2.125c2.518-5.516 4.592-9.292 10.996-9.043"/><path fill="white" d="m408.95 218.886 2.523.016 2.724.01 2.866.025 2.876.014q3.53.018 7.061.049c.188 2.875.188 2.875 0 6l-3 2 .563 1.75c.497 2.557.064 3.741-.563 6.25a112 112 0 0 0-.035 4.14L424 243q-3.812.04-7.625.062l-2.16.026c-4.188.02-8.088-.261-12.215-1.088v-6h2l.184-1.898.254-2.477c.08-.812.162-1.624.246-2.46C405 227 405 227 406 225v-2.563c0-3.379 0-3.379 2.95-3.55M414 226v1h5v-1z"/><path fill="white" d="M296 253h19c1.056 5.282.625 7.04-1 12a460 460 0 0 0-1.125 3.938L312 272h2v4h-9l-1.312-2.937c-1.39-3.34-1.39-3.34-4.688-4.063l-.437 2.938C298 275 298 275 297 276c-2.67.141-5.324.042-8 0 .525-5.03 1.106-10.019 2-15l9-1 1 2c2.527.656 2.527.656 5 1v-2l3-1 1-3-2.555.035c-1.095.01-2.191.018-3.32.027l-3.305.036C298 257 298 257 296 256z"/><path fill="white" d="M322 253c3.312-.029 6.625-.047 9.938-.062l2.865-.026 2.724-.01 2.524-.016C342 253 342 253 343 254c.072 1.853.084 3.708.063 5.563l-.028 3.066L343 265h-2l-.437 2.313C340 270 340 270 339 273c-2.349 1.174-3.738 1.115-6.352 1.098l-2.578-.01-2.695-.026-2.719-.013q-3.328-.018-6.656-.049c.089-1.813.197-3.626.313-5.437l.175-3.06c.64-4.385 2.001-8.35 3.512-12.503m6 6-3 9h8c1.563-4.393 1.563-4.393 2-9z"/><path fill="white" d="m131 220 2 1c.573 6.991-.511 13.017-2.25 19.75l-.62 2.472c-1.496 5.533-3.208 10.83-8.192 14.153C120 258 120 258 117 258l.656 2.922.844 3.828.844 3.797C120 272 120 272 120 276c-3.146.029-6.292.047-9.437.063l-2.721.025-2.588.01-2.396.016C101 276 101 276 100 275a247 247 0 0 1-1.062-8.062l-.276-2.3Q98.327 261.822 98 259H84l-.312 3.438c-.583 4.786-2.06 9.033-3.688 13.562H62l-1-2 2-2v3h16v-5c.602-2.02 1.273-4.021 2-6q1.006-2.999 2-6a2399 2399 0 0 1 8.938-.062l2.576-.026 2.45-.01 2.27-.016C101 258 101 258 102 259c.235 2.35.414 4.706.563 7.063l.253 3.91L103 273h13c-.658-7.55-.658-7.55-2-15 3-2 3-2 7-2v-4h3l.332-1.871c2.87-15.331 2.87-15.331 5.668-18.129.234-2.016.413-4.038.563-6.062l.253-3.348z"/><path fill="white" d="m144.201 216.753 2.768.004 3.135-.01 3.396.023h3.475q3.64.006 7.283.024c3.726.018 7.453.02 11.18.02l7.062.018 3.396.003 3.135.02 2.768.011C194 217 194 217 196 218c-3.032 16.032-3.032 16.032-6 19-1.88.227-1.88.227-4.133.195l-2.441-.02-2.551-.05-2.574-.027c-2.1-.024-4.2-.06-6.301-.098l-1 8h-1v-10c3.31-1.655 6.991-1.1 10.625-1.062l2.43.013q2.972.02 5.945.049v-2h2l.437-3.75c.336-2.875.853-5.41 1.563-8.25l-51 1-1 9h-2v5h16c.268 13.393.268 13.393-2 17h-2c-.455-5.763 1.209-10.606 3-16l-2.105.496c-3.13.545-6.033.601-9.208.567l-3.238-.028L137 237c-1.309-3.927-.26-6.717.812-10.562l.542-2.077c1.949-7.17 1.949-7.17 5.847-7.608"/><path fill="white" d="M349 253h5c-.57 5.35-1.207 10.678-2 16l9-1 1.313-4.125A67 67 0 0 1 367 253h4c.25 6.502.25 6.502-.977 8.945-1.471 2.955-1.463 5.778-1.68 9.032C368 273 368 273 366 275c-1.832.243-1.832.243-4.027.23l-2.4-.005-2.51-.038-2.499-.001c-3.509-.026-6.204-.066-9.564-1.186v-9h2l.184-2.117.253-2.758.247-2.742C348 255 348 255 349 253"/><path fill="white" d="m83 216.978 3.155.061 3.415.082 3.49.072q5.532.116 11.065.245l7.488.158q9.194.194 18.387.404l1 2H78l-2 10 3.289-.016q6.019-.026 12.037-.039 2.609-.008 5.218-.02c2.494-.013 4.989-.018 7.483-.023l2.37-.015c1.869 0 3.736.051 5.603.113 1.658 1.658 1.21 3.603 1.25 5.875l.078 2.68c-.398 2.968-.993 3.635-3.328 5.445-2.145.372-2.145.372-4.598.363l-2.677-.002-2.787-.048-2.8.01c-6.87-.056-6.87-.056-9.138-2.323v-4l-15 1-1.187 5.438c-1.297 5.613-2.77 11.154-4.375 16.687l-.636 2.224c-.966 3.275-1.893 5.788-3.802 8.651.79-6.79 2.377-13.366 4-20l.498-2.041c.51-2.073 1.035-4.141 1.565-6.209l.972-3.828L71 237c3.174-1.587 6.582-1.143 10.063-1.125l2.26-.012c5.55.01 5.55.01 6.677 1.137v5l20-1 2-9-3.38.016q-6.187.026-12.373.039-2.682.008-5.363.02c-2.565.013-5.129.018-7.693.023l-2.436.015c-1.919 0-3.837-.051-5.755-.113l-1-1c.086-1.926.086-1.926.375-4.312l.273-2.364c.33-2.18.658-4.23 1.352-6.324 2.524-1.262 4.178-1.083 7-1.022"/><path fill="white" d="m275.547 252.805 2.558.02 2.645.05 2.691.027q3.28.036 6.559.098v4l-3.21.078q-2.083.084-4.165.172l-2.117.043c-2.285.067-2.285.067-5.508.707-1.565 1.914-1.565 1.914-2 4h-2l1 6 10 1v-4h-3v-2h8c-.114 1.46-.242 2.917-.375 4.375-.07.812-.14 1.624-.21 2.46C286 272 286 272 284 274c-1.955.243-1.955.243-4.316.23l-2.565-.005-2.682-.038-2.693-.001c-6.604-.046-6.604-.046-7.744-1.186.135-4.662.98-9.355 1.813-13.937l.394-2.215c1.668-3.887 5.51-4.095 9.34-4.043"/><path fill="white" d="M377 253h19c.162 5.98.105 10.347-2 16l-3.21.078q-2.083.084-4.165.172l-2.117.043c-2.285.067-2.285.067-5.508.707-1.565 1.914-1.565 1.914-2 4h-5c.514-4.97 1.234-9.29 3-14 2.875-.125 2.875-.125 6 0l2 2c3.597-.323 3.597-.323 7-1v-4l-3.687.063c-3.233.005-6.162-.275-9.313-1.063z"/><path fill="white" d="m315.75 220.375 2.113.172c1.713.14 3.425.295 5.137.453.78 4.975 1.259 9.063 0 14l-4 2-1-11h-9c-1.425 3.99-2.4 7.805-3 12h12v2l2 1h-19c-.823-4.113-1.04-6.331-.562-10.312l.308-2.676L301 226h2l.25-1.875c.75-2.125.75-2.125 2.313-3.281 3.44-1.191 6.63-.805 10.187-.469"/><path fill="white" d="M198 229h1v14l5 2v5l-3.312 1.313c-3.893 1.64-3.893 1.64-6.688 4.687-.4 2.323-.74 4.657-1 7l-1 1a59 59 0 0 0-.062 4.063L192 272c3.997 1.332 7.848 1.163 12.016 1.168l2.694.01q2.825.007 5.649.007c2.866.002 5.732.02 8.598.04q2.748.005 5.496.005l2.58.022c6.97-.026 12.528-1.52 18.967-4.252-.977 2.833-1.888 3.924-4.397 5.616-4.946 1.9-9.367 1.776-14.619 1.712l-3.188-.006q-3.324-.01-6.647-.04c-3.401-.032-6.802-.042-10.204-.048l-6.46-.03-3.094-.014-2.853-.029-2.516-.02C192 276 192 276 190 275v-2h-2c-.576-7.491.624-15.84 5.496-21.844 2.366-2.03 4.55-3.171 7.504-4.156l-2.5-1.562c-2.5-2.438-2.5-2.438-2.937-5.75.452-3.812 1.249-7.05 2.437-10.688"/><path fill="white" d="M276 218c3.625-.058 7.25-.094 10.875-.125 1.033-.017 2.065-.034 3.129-.05l2.988-.02 2.761-.032C298 218 298 218 300 220c.2 5.359-.395 10.84-4 15h-3l2.246-4.785c1.079-2.945 1.079-2.945 1.754-9.215l-20-1v4h14v5c-1 1-1 1-4.625 1.188-4.11-.038-7.488-.892-11.375-2.188l-.402 2.047-.536 2.703-.527 2.672c-.459 2.21-.968 4.393-1.535 6.578h6l.375-2.875C279 236 279 236 281 234c2.563.25 2.563.25 5 1 1.354 2.709 1.065 5.01 1 8h7l-1-6c2 2 2 2 2.125 4.625L295 244h-9c-1.257-2.906-2-4.796-2-8l-3 1c-1.716 3.503-1.716 3.503-3 7h-7c-1.25-4.304-.665-6.838.875-11 1.34-3.672 2.43-7.154 3.125-11q.49-2.002 1-4m5 8 2 1v2h6l1-3z"/><path fill="white" d="m211.77 217.839 3.003-.03 3.254-.012 3.333-.017q3.495-.014 6.988-.02c3.571-.01 7.142-.041 10.713-.073l6.779-.015 3.248-.038 3.013.01 2.654-.011c2.717.444 3.591 1.206 5.245 3.367 1.569 6.783-.892 14.012-4 20-2.567 3.042-5.195 4.732-9 6l2.5.937c2.5 2.063 2.5 2.063 2.937 3.915.172 6.056-1.448 11.478-3.437 17.148h-1c.58-6.013 1.223-12.009 2-18l-6-1v-6c5.75-2 5.75-2 8-2l-1-3 3-2c1.925-3.95 2.092-7.41 2.05-11.723l-.021-2.996L256 220c-6.584-.102-13.167-.172-19.751-.22q-3.358-.03-6.716-.082c-3.222-.048-6.443-.071-9.666-.089l-3.021-.062c-5.932-.002-9.337.48-13.846 4.453l-1 2h-2l-1 3c.415-4.838 2.42-6.856 6-10 2.44-1.22 4.042-1.14 6.77-1.161"/><path fill="white" d="m310.625 217.805 2.64.02 2.735.05 2.734.027q2.52.027 5.04.066c2.075.03 4.15.032 6.226.032h24c-.875 7.875-.875 7.875-2 9q-3.492.553-7 1l-.84 3.246-1.098 4.191-.552 2.143c-1.397 5.307-1.397 5.307-2.51 6.42-2.67.141-5.324.042-8 0-.402-6.166 1.032-11.177 3-17l-9 1v-2h10a601 601 0 0 1-.375 5.75l-.21 3.234c-.388 2.818-.972 4.599-2.415 7.016h6l-.062-2.437C339 237 339 237 340 236l.375-3.875c.3-2.457.528-3.952 1.75-6.125 2.917-1.556 5.641-1.183 8.875-1v-5l-2.28.108q-5.077.234-10.158.454l-3.587.17-3.409.147-3.158.143C326 221 326 221 325 220a254 254 0 0 0-8.562-.562l-2.444-.131A1763 1763 0 0 0 308 219v2l-1.937.813c-2.394 1.074-2.394 1.074-3.063 4.187h-2c.25-2.875.25-2.875 1-6 2.88-1.938 5.204-2.24 8.625-2.195"/><path fill="white" d="M330 220h21v5l-3.375.375c-3.656.272-3.656.272-5.625 2.625a183 183 0 0 0-.715 5.89c-.385 2.847-1.28 5.428-2.285 8.11h-6l.938-5.187.527-2.918A463 463 0 0 1 336 226h-6z"/><path fill="white" d="M78 219q10.84-.075 21.68-.11 3.69-.016 7.38-.04c3.53-.025 7.059-.036 10.588-.045l3.35-.032h3.093l2.732-.014C129 219 129 219 131 221H79l1 6 2.998.152q5.496.284 10.991.593 2.38.13 4.761.25c2.28.115 4.557.242 6.836.372l2.156.101c5.03.304 5.03.304 7.258 2.532.315 4.336.449 6.327-2 10l-1-10-36-1c0-7.875 0-7.875 2-11"/><path fill="white" d="M296 253h19c1.037 5.184.705 7.155-1 12l-2 3a128 128 0 0 0-1 7h-5a177 177 0 0 1-1-7l1-1-3-2v-2h3v-2l3-1 1-3-2.555.035c-1.095.01-2.191.018-3.32.027l-3.305.036C298 257 298 257 296 256z"/><path fill="white" d="m405 228 18 1v4l-2.336.113-3.039.2-3.023.175L412 234l-2 3h11v4h-18c.461-4.48.907-8.627 2-13"/><path fill="white" d="M381 220h21v5c-1 1-1 1-4.437 1.438-3.604.21-3.604.21-5.563 2.562-.606 2.058-1.012 4.12-1.437 6.223L390 237l-2 1-2-1v-10l-5-2z"/><path fill="white" d="M363 220h8l.184 2.117.253 2.758.247 2.742c.186 2.394.186 2.394 1.316 4.383.07 1.54.085 3.083.063 4.625l-.028 2.477L373 241h-4v-3h-9l2-4h4l1-8-4 1c-.934-3.01-1.044-3.867 0-7"/><path fill="white" d="M323 254h5v2h6v1h-8l-1 7h-2v8l13-2 1 4h-19c.357-7.858.97-13.239 5-20m15 13 1 2-2-1z"/><path fill="white" d="M148 219h46c0 10.556 0 10.556-2 16-2 2-2 2-3.88 2.227-.743-.01-1.487-.02-2.253-.032l-2.441-.02-2.551-.05-2.574-.027c-2.1-.024-4.2-.06-6.301-.098l-1 8h-1v-10c3.31-1.655 6.991-1.1 10.625-1.062l2.43.013q2.972.02 5.945.049v-2h2l.438-3.75c.335-2.875.852-5.41 1.562-8.25h-45z"/><path fill="white" d="m390 258 1 4c-3.135 1.858-5.375 2.201-9 2v3h13l-1 2c-3.192.264-6.34.367-9.541.39-2.265.04-2.265.04-5.459.61-1.562 1.909-1.562 1.909-2 4h-5c.514-4.97 1.234-9.29 3-14 2.875-.125 2.875-.125 6 0l2 2c3.597-.323 3.597-.323 7-1z"/><path fill="white" d="M247 269v3c-6.093 4.298-10.848 4.54-18.184 4.39-1.055-.005-2.11-.01-3.198-.017-3.352-.022-6.704-.072-10.055-.123q-3.422-.03-6.842-.055-8.361-.067-16.721-.195l-1-3 1.661.013q8.59.066 17.18.097 3.203.015 6.405.04c3.075.025 6.15.037 9.227.045l2.873.032c6.863 0 12.563-.816 18.654-4.227"/><path fill="white" d="M275 257h15v1h-7v3h5c.25 7.625.25 7.625-2 11l1-9h-8v2h3v4q-2.47.039-4.937.063l-2.778.035C272 269 272 269 271 268c-.04-2-.043-4 0-6l2-1zm-2 5v6h7l-4-1-.375-1.937L275 263z"/><path fill="white" d="M349 253h5a764 764 0 0 1-.437 4.375l-.247 2.46C353 262 353 262 352 264c-.04 2-.043 4 0 6l6 1v2h-12c-.409-7.08 1.096-13.2 3-20"/><path fill="white" d="M150 252h1c.65 8.172-1.15 14.34-4 22l14-1 2-8h2a999 999 0 0 1-.937 4.938l-.528 2.777C163 275 163 275 162 276c-2.863.073-5.7.092-8.562.063l-2.444-.014q-2.997-.02-5.994-.049c-.222-5.466.535-10.103 1.938-15.375l.552-2.191c1.364-5.288 1.364-5.288 2.51-6.434"/><path fill="white" d="M375 251h23c1.125 6.75 1.125 6.75-.437 11.375l-.872 2.648L396 267c-1.508-4.78-.582-9.085 0-14h-19v3l13 1v1q-3.469.29-6.937.563l-3.903.316L376 259l-1-1z"/><path fill="white" d="M213.769 218.66h2.85l3.053.047 3.144.013c3.312.017 6.623.054 9.934.092q3.369.024 6.738.042 8.256.05 16.512.146l1 3h-52c3-2.606 4.807-3.373 8.769-3.34"/><path fill="white" d="m211.77 217.839 3.003-.03 3.254-.012 3.333-.017q3.495-.014 6.988-.02c3.571-.01 7.142-.041 10.713-.073l6.779-.015 3.248-.038 3.013.01 2.654-.011c2.721.445 3.602 1.19 5.245 3.367.363 2.156.363 2.156.312 4.5l-.011 2.344C260 230 260 230 258 233l-.184-2.336-.254-3.039c-.08-.998-.162-1.995-.246-3.023-.166-2.581-.166-2.581-1.316-4.602-6.584-.102-13.167-.172-19.751-.22q-3.358-.03-6.716-.082c-3.222-.048-6.443-.071-9.666-.089l-3.021-.062c-5.932-.002-9.337.48-13.846 4.453l-1 2h-2l-1 3c.415-4.838 2.42-6.856 6-10 2.44-1.22 4.042-1.14 6.77-1.161"/><path fill="white" d="m367.688 217.813 2.449.082L372 218c.679 3.018 1.34 6.04 2 9.063l.578 2.568c1.061 4.907 1.64 9.35 1.422 14.369h-9l-1-5h2v3h6q-.464-2.438-.937-4.875l-.528-2.742C372.1 232 372.1 232 371 230a95 95 0 0 1-.062-5.125l.027-2.758L371 220l-8 1-2 5h-3c1.948-5.544 3.481-8.457 9.688-8.187"/><path fill="white" d="M308 219q4.094-.08 8.188-.125l2.33-.05c4.297-.038 7.561.18 11.482 2.175v5h-4l-.148 2.012c-.78 9.21-.78 9.21-2.852 12.988l-2 1v-5h2v-16l-5.25.125c-3.88.092-6.4-.1-9.75-2.125"/><path fill="white" d="M386 227h1c.125 7.75.125 7.75-1 10h3l3-9c1.04 3.12 1.009 4.778.688 8l-.239 2.625C392 241 392 241 390 244c-1.945.293-1.945.293-4.125.188L382 244q.214-2.126.438-4.25c.08-.789.162-1.578.246-2.39.292-2.184.737-4.237 1.316-6.36h2z"/><path fill="white" d="M275 222c1.148 1.484 1.148 1.484 2 4a76 76 0 0 1-2.375 8.25l-.75 2.258A491 491 0 0 1 272 242h6l.375-2.875C279 236 279 236 281 234c2.563.25 2.563.25 5 1 1.354 2.709 1.065 5.01 1 8h7l-1-6c2 2 2 2 2.125 4.625L295 244h-9c-1.257-2.906-2-4.796-2-8l-3 1c-1.716 3.503-1.716 3.503-3 7h-7c-1.25-4.304-.665-6.838.875-11 1.337-3.665 2.46-7.151 3.125-11"/><path fill="white" d="M326 226h10a601 601 0 0 1-.375 5.75c-.07 1.067-.14 2.135-.21 3.234-.388 2.818-.972 4.599-2.415 7.016h6l-.062-2.437C339 237 339 237 340 236c.225-2.028.448-4.057.621-6.09C341 228 341 228 343 226c2.164-.195 2.164-.195 4.625-.125l2.477.055L352 226v1l-7 1-.84 3.246-1.098 4.191-.552 2.143c-1.397 5.307-1.397 5.307-2.51 6.42-2.67.141-5.324.042-8 0-.402-6.166 1.032-11.177 3-17l-9 1z"/><path fill="white" d="m214.973 252.867 2.974-.004 3.115.012 3.127-.012 2.971.004 2.739.004C232 253 232 253 233 254c.072 1.52.084 3.042.063 4.563l-.028 2.503L233 263c-3.383.976-5.566.859-9 0v-1l6-1 1-6q-4.437-.118-8.875-.187l-2.55-.077-2.442-.029-2.254-.048L213 255c-2.277 2.815-2.277 2.815-2 6 2.525 1.262 4.312 1.099 7.125 1.063l2.758-.028L223 262v2q-2.906.079-5.812.125l-3.27.07C211 264 211 264 208 262c-.408-2.712-.133-5.244 0-8 2.49-1.245 4.19-1.13 6.973-1.133"/><path fill="white" d="M351 264h1v5q2.188-.212 4.375-.437l2.46-.247c2.208-.207 2.208-.207 4.165-1.316-.875 3.875-.875 3.875-2 5l7-1-2 4q-4.407.04-8.812.063l-2.526.025-2.432.01-2.237.016C348 275 348 275 345 274v-9h1v8h12v-2c-1.454.03-1.454.03-2.937.063C352 271 352 271 351 270c-.04-2-.043-4 0-6"/><path fill="white" d="m382.317 217.886 3.03.016 3.272.01 3.444.025 3.455.014q4.241.018 8.482.049l-2 3c-2.155.249-2.155.249-4.79.074l-2.85-.166-2.985-.22-3.008-.186A673 673 0 0 1 381 220v5l5 1v5l-1-4h-7c.995-8.95.995-8.95 4.317-9.114"/><path fill="white" d="M295 252c3.48-.029 6.958-.047 10.438-.062l3.01-.026 2.86-.01 2.65-.016C316 252 316 252 317 253c.452 4.69.536 8.781-1.375 13.125L314 268h-2l.656-2.047.844-2.703.844-2.672c.82-2.78.82-2.78.656-6.578l-19-1v3l14 1-1 4-3-1 2-1h-13z"/><path fill="white" d="m408 228 15 1v4l-2.336.113-3.039.2-3.023.175L412 234l-2 3h8v1h-10v-6l2-1-2-1z"/><path fill="white" d="M300 226h1v16h20c-2.402 2.402-2.97 2.256-6.246 2.266l-2.537.007-2.654-.023-2.643.023-2.541-.007-2.326-.007C300 244 300 244 297 242q.465-2.876.938-5.75l.527-3.234c.422-2.38.907-4.685 1.535-7.016"/><path fill="white" d="M362 227c-.405 5.666-2.313 7.945-6 12l-1 2h-4v-5l3-1 1-5h2v-2c2-1 2-1 5-1M408 220h18v4h-18z"/><path fill="white" d="M83 258h16v5l-1-4H84l-.312 3.438c-.583 4.786-2.06 9.033-3.688 13.562H62l-1-2 2-2v3h16v-5c.602-2.02 1.273-4.021 2-6z"/><path fill="white" d="M326 257c7.75-.125 7.75-.125 10 1q.039 2.438.063 4.875l.035 2.742C336 268 336 268 335 270q-2.47.039-4.937.063l-2.778.035C325 270 325 270 324 269c.064-1.65.2-3.296.375-4.937l.273-2.715C325 259 325 259 326 257m2 2-3 9h8c1.563-4.393 1.563-4.393 2-9z"/><path fill="white" d="M276 218c3.625-.058 7.25-.094 10.875-.125 1.033-.017 2.065-.034 3.129-.05l2.988-.02 2.761-.032C298 218 298 218 300 220c.2 5.359-.395 10.84-4 15h-3l1.438-3.062c1.556-3.597 2.163-7.03 2.562-10.938h-2v-2h-19z"/><path fill="white" d="M330 220h21v1l-14 1c-.09 2.068-.09 2.068.625 4.25.465 3.41-.374 5.586-1.625 8.75-1.108-3.325-.845-5.622 0-9h-6z"/><path fill="white" d="m300 263 1 2h-3l-.375 3.313C297 272 297 272 295 275h-4l1-6 .438-3.312L293 263c2.698-1.349 4.152-.803 7 0"/><path fill="white" d="M216 230c3.458-.029 6.917-.047 10.375-.062l2.984-.026 2.852-.01 2.634-.016C237 230 237 230 239 231v7l-2 1v-6h-19l-2 6h-1c-.125-6.75-.125-6.75 1-9"/><path fill="white" d="M291 262h2c.193 4.824-.243 8.496-2 13h4l2-7c2.375-.625 2.375-.625 5-1l2 2c-.375 2.125-.375 2.125-1 4l-1-3-3-1-.437 2.938C298 275 298 275 297 276c-2.67.141-5.324.042-8 0 .964-9.41.964-9.41 2-14"/><path fill="white" d="m353 231 1 4-2 1c-.656 2.527-.656 2.527-1 5h4l1-4 6 2v1h-5l-2 4h-9c.944-3.774 1.903-5.625 4.063-8.75.547-.8 1.095-1.598 1.66-2.422z"/><path fill="white" d="M375 261h5l-1 7h-2v6h-5c.48-4.714.968-8.666 3-13"/><path fill="white" d="M410 225h8v1l7 2-1 8h-11l1-2c2.649-.594 5.292-.742 8-1l1-4-2.336.035-3.039.028-3.023.035C412 229 412 229 410 228z"/><path fill="white" d="M216 239h21l-1 4q-4.437.04-8.875.063l-2.55.025-2.442.01-2.254.016C218 243 218 243 216 242z"/><path fill="white" d="M117 261h1q.506 2.625 1 5.25l.563 2.953C120 272 120 272 120 276c-3.146.029-6.292.047-9.437.063l-2.721.025-2.588.01-2.396.016C101 276 101 276 100 275a123 123 0 0 1-.562-5.562l-.254-3.067L99 264l2 1c.601 3.317.744 6.634 1 10h15z"/><path fill="white" d="m253 244-6 3 2.5.938c2.5 2.062 2.5 2.062 2.938 3.914.17 6.056-1.45 11.478-3.438 17.148h-1c.58-6.013 1.223-12.009 2-18l-5-1v-5c5.75-2.125 5.75-2.125 8-1"/><path fill="white" d="M71 237h1c.426 6.572-1.153 12.312-2.875 18.625l-.816 3.102c-1.215 4.551-2.492 8.92-4.309 13.273h-1c1.383-11.89 4.86-23.476 8-35"/><path fill="white" d="M349 253h5c-.114 1.46-.242 2.917-.375 4.375-.07.812-.14 1.624-.21 2.46C353 262 353 262 351 264l-1-2-3 2q.212-2.188.438-4.375c.08-.812.162-1.624.246-2.46C348 255 348 255 349 253"/><path fill="white" d="M170 235h21l-1 2h-18l-1 8h-1z"/><path fill="white" d="M374 261c1.184 3.552.695 4.698-.437 8.188l-.872 2.73L372 274c2.46-.342 2.46-.342 5-1 1.36-1.968 1.36-1.968 2-4l1 2c-.937 2.625-.937 2.625-2 5h-8c-1.166-3.498-.759-4.616.313-8.062l.8-2.66C372 263 372 263 374 261"/><path fill="white" d="M81 260c1.877 5.221-.479 9.89-2 15H63l1-6h1v5c3.77-.371 7.377-.874 11-2 2.242-2.65 2.242-2.65 3-6l1.188-3.375z"/><path fill="white" d="m270.225 251.886 2.904.016 3.135.01 3.298.025 3.311.014q4.064.018 8.127.049v5l-1-4q-4.626.212-9.25.437l-2.645.12-2.558.127-2.349.11c-2.155.202-4.116.623-6.198 1.206l-.148 1.863-.227 2.45c-.07.8-.14 1.6-.21 2.425C266 264 266 264 264 267c1.539-14.874 1.539-14.874 6.225-15.114"/><path fill="white" d="m310.625 217.77 2.64.005 2.735.037 2.734.002c3.938.027 7.46.097 11.266 1.186v2l-1.95-.465c-3.948-.692-7.863-.893-11.863-1.097l-2.388-.131q-2.9-.158-5.799-.307v2l-1.937.813c-2.394 1.074-2.394 1.074-3.063 4.187h-2c.25-2.875.25-2.875 1-6 2.872-1.93 5.213-2.248 8.625-2.23"/><path fill="white" d="M296 253h4v3h11q.062 3.5 0 7c-1 1-1 1-4.562 1.063L303 264l3-1v-2l3-1 1-3-2.555.035c-1.095.01-2.191.018-3.32.027l-3.305.036C298 257 298 257 296 256z"/><path fill="white" d="M384 231h1v11h5l1-5c.625 1.813.625 1.813 1 4l-2 3c-1.945.293-1.945.293-4.125.188L382 244q.214-2.126.438-4.25c.08-.789.162-1.578.246-2.39.292-2.184.737-4.237 1.316-6.36"/><path fill="white" d="M363.688 232.313 366 233l-1.937.313L362 234l-1 3 8 1v3h4v-6h1v7h-6v-3l-3 1a119 119 0 0 1-7-2c0-3 0-3 1.188-4.75 1.812-1.25 1.812-1.25 4.5-.937"/><path fill="white" d="M326 226h10a612 612 0 0 1-.375 5.688c-.07 1.055-.14 2.111-.21 3.199-.403 3.02-1.156 5.354-2.415 8.113h7v1h-8c-.402-6.166 1.032-11.177 3-17l-9 1z"/><path fill="white" d="M149 235h6c.054 2.083.093 4.166.125 6.25l.07 3.516c-.185 3.062-.587 4.676-2.195 7.234h-2c-.455-5.763 1.209-10.606 3-16h-5z"/><path fill="white" d="M412 233h10v1l-8 1 10 1v7h-2v-6h-12z"/><path fill="white" d="M341 265h2c-.61 6.46-.61 6.46-2.238 8.712-2.336 1.707-3.774 1.633-6.649 1.581l-2.842-.03-2.959-.075-2.994-.042q-3.66-.053-7.318-.146v-1l21-1 1-5z"/><path fill="white" d="m212 253-1 8c2.525 1.262 4.312 1.099 7.125 1.063l2.758-.028L223 262v2q-2.906.079-5.812.125l-3.27.07C211 264 211 264 208 262c-.408-2.712-.133-5.244 0-8 2-1 2-1 4-1"/><path fill="white" d="M275 257h15v1h-7l-1 3h-6l-1 3-2-3z"/><path fill="white" d="m311.164 224.805 2.461.07 2.477.055L318 225q.079 2.187.125 4.375l.07 2.46C318 234 318 234 316 236c-2.164.195-2.164.195-4.625.125l-2.477-.055L307 236a293 293 0 0 1-.125-4.375l-.07-2.46c.279-3.092 1.268-4.081 4.36-4.36M310 226c-2.29 3.435-2.178 4.985-2 9h8c1.478-2.957 1.06-5.742 1-9-3.416-.25-3.416-.25-7 0"/><path fill="white" d="M395 261c1 2 1 2 0 6h-13v-3l8-1v3h4z"/><path fill="white" d="M163 265h2l-2 10h-11c2-2 2-2 5.625-2.125L161 273z"/><path fill="white" d="M293 231h2l-.219 2.117-.281 2.758-.281 2.742c-.25 2.316-.25 2.316-.219 4.383h-7l1-4 3 2 .438-3.312C292 234 292 234 293 231"/><path fill="white" d="M115 257c3.25 5.168 2.118 11.117 2 17h-14v-1h13c-.576-6.566-.576-6.566-1.625-13.062L114 258z"/><path fill="white" d="M316 268h1l1 7h20v1c-3.458.058-6.916.094-10.375.125l-2.984.05-2.852.02-2.634.032C317 276 317 276 315 274c.375-3.125.375-3.125 1-6"/><path fill="white" d="M278 225h12l1 4c-1 1-1 1-4.812 1.188-3.223-.03-5.443-.358-8.188-2.188zm3 1 2 1v2h6l1-3z"/><path fill="white" d="M70 249c2.52 6.722-.44 13.766-3 20h-2q.68-3.596 1.375-7.187l.383-2.042c.738-3.785 1.668-7.247 3.242-10.771"/><path fill="white" d="M169 245h1c-.79 6.787-2.413 13.361-4 20h-1c-.236-5.778.132-10.513 2-16h2z"/><path fill="white" d="m324 264 1 4c5.39-.23 5.39-.23 10-2.562l1-1.438-1 6q-2.47.039-4.937.063l-2.778.035C325 270 325 270 324 269a100 100 0 0 1 0-5"/><path fill="white" d="M320 255h2l-.875 2.813c-1.435 4.983-2.257 10.08-3.125 15.187h-1c-.376-6.802.225-11.757 3-18"/><path fill="white" d="m312 252 5 1c.57 10.88.57 10.88-3 15h-2l.656-2.047.844-2.703.844-2.672c.82-2.78.82-2.78.656-6.578z"/><path fill="white" d="m126 250 1 2c-3.173 3.536-5.167 5.586-10 6l-1 3 1-5h4v-4z"/><path fill="white" d="M252 218c4.51-.366 4.51-.366 6.648 1.23 1.71 2.238 1.725 3.482 1.664 6.27l-.011 2.344C260 230 260 230 258 233l-.184-2.336-.253-3.039-.247-3.023c-.166-2.581-.166-2.581-1.316-4.602-2.017-1.134-2.017-1.134-4-2"/><path fill="white" d="M378 258h12v3l-8 2-1-3h-3zm5 1v2l6-1v-1z"/><path fill="white" d="M257 222h1q.04 3.688.063 7.375l.025 2.117c.025 5.281.025 5.281-1.088 7.508h-2q-.061-3.5 0-7l1-1c.232-1.515.412-3.038.563-4.562l.253-2.504z"/><path fill="white" d="M367 229c2 2 2 2 2 6l-4 1v2h-5l2-4h4z"/><path fill="white" d="M326 221h4v5h-4v6h-1c-.125-7.625-.125-7.625 1-11"/><path fill="white" d="m311 268 1 4h2v4h-9v-3l6 2z"/><path fill="white" d="M367 271v3c-1 1-1 1-2.766 1.114l-2.27-.016-2.45-.01-2.577-.026-2.587-.013q-3.175-.02-6.35-.049v-1l3.395-.148 4.418-.227 2.236-.094c3.77-.204 5.748-.395 8.951-2.531"/><path fill="white" d="M275 260c4.516-.077 8.59-.102 13 1v1h-10v3h-2z"/><path fill="white" d="m364.164 218.805 2.461.07 2.477.055L371 219v1l-8 1-2 5h-3c2.53-6.867 2.53-6.867 6.164-7.195"/><path fill="white" d="M341 265h2c-.75 6.75-.75 6.75-3 9l-3-1h2l.438-2.312C340 268 340 268 341 265"/><path fill="white" d="m212 253-1 5h-2l-1 4v-8c2-1 2-1 4-1"/><path fill="white" d="m370 260 2 1-3 10h-1c-.286-7.429-.286-7.429 2-11"/><path fill="white" d="m352 235 1 3 3 1-1 2h-4a100 100 0 0 1 0-5z"/><path fill="white" d="M324 232c1 2.698 1.036 3.88.188 6.688C323 241 323 241 321 242v-5h2z"/><path fill="white" d="M247 269v3c-1.812 1.75-1.812 1.75-4 3l-3-1c2.128-2.34 4.116-3.707 7-5"/><path fill="white" d="M300 260v2c-3.375.625-3.375.625-7 1l-2-2c3.196-1.065 5.657-1.074 9-1"/><path fill="white" d="m356 237 6 2v1h-5l-1 3c-1.125-3.75-1.125-3.75 0-6"/><path fill="white" d="M302 220h6l-1.937 1.313c-2.33 1.6-2.33 1.6-3.063 4.687h-2z"/></svg>